<svg width="450" height="503" viewBox="0 0 450 503" fill="none" xmlns="http://www.w3.org/2000/svg">
<circle cx="225" cy="225" r="225" fill="#FEBEEC"/>
<g clip-path="url(#clip0_609_1239)">
<path d="M62 501.994C61.9996 502.126 62.0248 502.257 62.0742 502.378C62.1236 502.5 62.1961 502.611 62.2877 502.704C62.3794 502.798 62.4882 502.872 62.6081 502.922C62.728 502.973 62.8567 503 62.9866 503H386.007C386.271 503 386.523 502.894 386.709 502.705C386.895 502.517 387 502.261 387 501.994C387 501.728 386.895 501.472 386.709 501.283C386.523 501.095 386.271 500.989 386.007 500.989H62.9925C62.8626 500.989 62.7338 501.014 62.6136 501.064C62.4934 501.114 62.3841 501.188 62.2919 501.281C62.1997 501.373 62.1265 501.484 62.0764 501.605C62.0264 501.727 62.0004 501.857 62 501.989V501.994Z" fill="#CCCCCC"/>
<path opacity="0.5" d="M191.086 364.288C194.605 363.567 198.209 363.369 201.784 363.7C202.115 363.697 202.432 363.563 202.666 363.326C202.9 363.089 203.033 362.768 203.035 362.432C203.029 362.098 202.895 361.78 202.662 361.544C202.428 361.308 202.114 361.172 201.784 361.165C197.984 360.831 194.156 361.06 190.421 361.844C190.101 361.934 189.829 362.148 189.666 362.44C189.502 362.733 189.46 363.079 189.548 363.403C189.636 363.727 189.848 364.002 190.136 364.168C190.424 364.334 190.766 364.377 191.086 364.288Z" fill="#CCCCCC"/>
<path d="M105.2 342.241C98.3202 332.971 94.3438 322.604 94.2135 310.786C93.9919 310.149 94.0287 309.449 94.3158 308.839C94.603 308.23 95.117 307.76 95.7453 307.534L119.195 299.129C119.824 298.904 120.515 298.942 121.117 299.232C121.718 299.523 122.181 300.044 122.404 300.681L133.391 332.136C133.613 332.773 133.576 333.473 133.289 334.083C133.002 334.692 132.487 335.162 131.859 335.388L108.409 343.793C107.781 344.018 107.09 343.98 106.488 343.69C105.886 343.399 105.423 342.878 105.2 342.241Z" fill="#F2F2F2"/>
<path opacity="0.2" d="M110.494 341.681C109.866 341.905 109.175 341.868 108.573 341.577C107.971 341.286 107.508 340.765 107.285 340.129C100.405 330.859 96.4289 320.492 96.2986 308.673C96.1551 308.254 96.1234 307.804 96.2067 307.369L95.7453 307.534C95.1171 307.76 94.603 308.23 94.3158 308.839C94.0287 309.449 93.9919 310.149 94.2135 310.785C94.3438 322.604 98.3202 332.971 105.2 342.241C105.423 342.878 105.886 343.399 106.488 343.689C107.09 343.98 107.781 344.018 108.409 343.793L131.859 335.388C132.275 335.237 132.645 334.977 132.93 334.635C133.215 334.293 133.406 333.881 133.483 333.441L110.494 341.681Z" fill="black"/>
<path d="M121.481 318.137L105.782 323.814C105.532 323.904 105.257 323.89 105.017 323.775C104.777 323.66 104.593 323.453 104.504 323.2C104.414 322.947 104.428 322.668 104.542 322.425C104.655 322.183 104.859 321.995 105.109 321.905L120.808 316.228C121.058 316.139 121.332 316.153 121.571 316.268C121.811 316.384 121.995 316.59 122.084 316.843C122.173 317.095 122.159 317.373 122.046 317.616C121.933 317.859 121.73 318.046 121.481 318.137Z" fill="white"/>
<path d="M107.392 317.332L103.938 318.581C103.815 318.626 103.683 318.646 103.552 318.64C103.421 318.634 103.292 318.602 103.173 318.545C103.054 318.488 102.947 318.409 102.859 318.31C102.77 318.212 102.702 318.097 102.657 317.971C102.612 317.846 102.593 317.713 102.599 317.58C102.605 317.447 102.637 317.317 102.693 317.196C102.749 317.076 102.828 316.968 102.925 316.878C103.022 316.788 103.136 316.719 103.26 316.674L103.266 316.672L106.72 315.423C106.969 315.334 107.243 315.348 107.483 315.464C107.722 315.579 107.906 315.785 107.995 316.038C108.084 316.29 108.07 316.568 107.957 316.811C107.844 317.053 107.641 317.241 107.392 317.332Z" fill="white"/>
<path d="M124.437 326.527L108.738 332.204C108.488 332.293 108.214 332.278 107.975 332.163C107.736 332.048 107.551 331.841 107.463 331.589C107.374 331.336 107.387 331.058 107.5 330.816C107.613 330.573 107.816 330.386 108.065 330.295L123.764 324.618C124.014 324.527 124.288 324.541 124.528 324.655C124.768 324.769 124.953 324.976 125.043 325.228C125.133 325.481 125.12 325.759 125.008 326.002C124.895 326.245 124.692 326.433 124.443 326.525L124.437 326.527Z" fill="white"/>
<path d="M122.958 322.332L107.259 328.009C107.01 328.099 106.735 328.086 106.495 327.971C106.255 327.856 106.07 327.65 105.98 327.397C105.891 327.144 105.904 326.865 106.018 326.622C106.131 326.379 106.335 326.192 106.585 326.101L106.587 326.1L122.286 320.423C122.535 320.334 122.81 320.348 123.049 320.463C123.288 320.579 123.473 320.785 123.562 321.038C123.651 321.29 123.637 321.569 123.524 321.811C123.411 322.054 123.207 322.241 122.958 322.332Z" fill="white"/>
<path d="M106.846 307.86C109.149 307.86 111.016 305.968 111.016 303.635C111.016 301.302 109.149 299.411 106.846 299.411C104.543 299.411 102.676 301.302 102.676 303.635C102.676 305.968 104.543 307.86 106.846 307.86Z" fill="#CCCCCC"/>
<path d="M259.475 121.165C259.542 127.35 261.485 140.226 260.092 146.284L259.867 145.777C258.709 146.707 257.479 147.541 256.189 148.27C255.258 145.977 253.867 143.905 252.102 142.187C252.335 145.03 252.003 147.891 251.126 150.602C245.914 152.503 236.764 146.513 231.093 146.386C221.968 146.175 213.077 143.876 204.362 141.443C201.268 140.581 197.865 139.457 196.463 136.855C195.062 134.253 197.57 131.444 197.406 128.507C196.237 107.59 206.072 104.084 215.429 98.4953C217.489 97.2654 218.499 94.6171 220.826 93.5863C224.053 92.1584 227.898 92.8427 231.41 93.5609C230.538 93.2699 229.754 92.7563 229.135 92.0697C228.515 91.3831 228.081 90.5465 227.873 89.6405C227.727 88.7524 227.825 87.8407 228.158 87.0058C228.491 86.1708 229.044 85.4452 229.758 84.9089C231.693 83.3965 234.579 83.2106 237.048 83.8527C239.433 84.6083 241.689 85.7311 243.737 87.1817C245.127 87.9545 246.37 88.9732 247.407 90.1897C247.895 90.7654 248.198 91.4784 248.275 92.2333C248.353 92.9882 248.201 93.7492 247.84 94.4143C247.395 94.9845 246.829 95.4455 246.183 95.763C245.538 96.0804 244.83 96.2462 244.112 96.2478C243.006 96.2804 241.901 96.1639 240.826 95.9014C245.755 97.1332 250.198 99.8563 253.562 103.709C257.74 108.634 259.4 114.98 259.475 121.165Z" fill="#2F2E41"/>
<path d="M113.686 180.77C114.534 182.593 116.051 184.01 117.914 184.717C119.777 185.425 121.839 185.368 123.662 184.559C124.03 184.389 124.383 184.188 124.718 183.958L146.194 199.943L158.034 191.757L126.278 173.083C125.232 171.748 123.778 170.803 122.145 170.393C120.512 169.983 118.791 170.133 117.251 170.818C116.378 171.217 115.592 171.786 114.936 172.492C114.28 173.199 113.768 174.029 113.429 174.936C113.09 175.843 112.931 176.809 112.96 177.778C112.99 178.748 113.208 179.702 113.601 180.586C113.628 180.648 113.657 180.709 113.686 180.77Z" fill="#FFB6B6"/>
<path d="M335.03 166.264C333.056 166.513 331.255 167.533 330.012 169.106C328.768 170.68 328.18 172.683 328.372 174.69C328.417 175.097 328.496 175.499 328.607 175.893L306.931 191.598L310.927 205.544L338.325 180.779C339.902 180.186 341.241 179.081 342.134 177.636C343.026 176.191 343.421 174.488 343.257 172.792C343.155 171.828 342.866 170.893 342.407 170.042C341.948 169.191 341.328 168.44 340.583 167.831C339.837 167.223 338.981 166.769 338.062 166.496C337.144 166.223 336.181 166.135 335.229 166.239C335.163 166.246 335.096 166.254 335.03 166.264Z" fill="#FFB6B6"/>
<path d="M177.846 488.108L170.865 488.048L167.775 460.137L178.077 460.225L177.846 488.108Z" fill="#FFB6B6"/>
<path d="M155.486 499.353C155.48 500.191 155.803 500.998 156.383 501.596C156.963 502.194 157.753 502.534 158.581 502.542L172.459 502.66L174.889 497.671L175.781 502.685L181.018 502.733L179.695 484.848L177.873 484.725L170.442 484.206L168.045 484.044L168.003 489.104L156.854 496.765C156.436 497.052 156.094 497.437 155.856 497.888C155.617 498.339 155.491 498.842 155.486 499.353Z" fill="#2F2E41"/>
<path d="M269.86 456.781L264.161 460.864L245.556 440.041L253.967 434.014L269.86 456.781Z" fill="#FFB6B6"/>
<path d="M258.201 479.141C258.679 479.825 259.406 480.288 260.221 480.43C261.037 480.572 261.875 480.381 262.551 479.898L273.882 471.778L272.976 466.291L276.593 469.832L280.87 466.772L269.482 453.04L267.932 454.018L261.602 457.996L259.563 459.283L262.447 463.415L257.818 476.231C257.644 476.711 257.589 477.226 257.655 477.733C257.722 478.24 257.909 478.723 258.201 479.141Z" fill="#2F2E41"/>
<path d="M183.081 261.813L203.357 214.113H250.06L236.59 263.894L183.081 261.813Z" fill="#FFB6B6"/>
<path d="M140.209 488.322C139.821 488.34 139.437 488.237 139.11 488.027C138.782 487.817 138.526 487.509 138.376 487.147C138.226 486.784 138.19 486.383 138.273 485.999C138.355 485.615 138.552 485.266 138.837 484.999L138.967 484.477C138.95 484.435 138.933 484.393 138.915 484.351C138.525 483.417 137.87 482.62 137.034 482.061C136.198 481.502 135.218 481.206 134.216 481.21C133.214 481.213 132.236 481.517 131.404 482.082C130.572 482.647 129.923 483.449 129.54 484.386C128.006 488.128 126.054 491.876 125.573 495.832C125.361 497.58 125.451 499.353 125.837 501.071C122.235 493.112 120.365 484.461 120.353 475.705C120.352 473.508 120.473 471.313 120.714 469.129C120.913 467.339 121.19 465.562 121.544 463.797C123.474 454.223 127.619 445.25 133.637 437.613C136.55 436.003 138.906 433.527 140.387 430.519C140.924 429.438 141.303 428.283 141.513 427.092C141.184 427.136 140.274 422.066 140.522 421.755C140.064 421.051 139.244 420.701 138.744 420.014C136.257 416.597 132.83 417.194 131.041 421.837C127.219 423.791 127.182 427.031 129.527 430.148C131.019 432.131 131.224 434.814 132.533 436.937C132.398 437.111 132.258 437.281 132.124 437.455C129.662 440.662 127.516 444.106 125.717 447.737C126.155 443.669 125.633 439.554 124.194 435.731C122.736 432.167 120.003 429.166 117.596 426.086C116.96 425.258 116.095 424.641 115.112 424.311C114.129 423.981 113.072 423.954 112.074 424.232C111.075 424.511 110.181 425.084 109.504 425.877C108.826 426.671 108.397 427.65 108.269 428.691C108.264 428.737 108.259 428.782 108.254 428.827C108.612 429.032 108.962 429.248 109.304 429.478C109.734 429.769 110.067 430.185 110.26 430.671C110.453 431.157 110.496 431.691 110.384 432.203C110.272 432.715 110.01 433.18 109.633 433.538C109.255 433.897 108.78 434.131 108.269 434.211L108.216 434.219C108.344 435.524 108.569 436.818 108.89 438.088C105.802 450.184 112.468 454.59 121.985 454.788C122.196 454.897 122.4 455.006 122.61 455.11C120.803 460.298 119.67 465.702 119.238 471.187C118.994 474.422 119.008 477.673 119.281 480.906L119.265 480.791C118.575 477.196 116.682 473.952 113.905 471.607C109.78 468.174 103.953 466.91 99.5026 464.151C99.0297 463.843 98.4798 463.679 97.9178 463.678C97.3557 463.676 96.805 463.838 96.3306 464.143C95.8562 464.448 95.4779 464.885 95.2403 465.401C95.0026 465.917 94.9156 466.491 94.9894 467.055L95.0076 467.176C95.671 467.449 96.3168 467.765 96.9415 468.12C97.2989 468.324 97.6489 468.541 97.9912 468.77C98.4213 469.061 98.7546 469.477 98.9474 469.963C99.1401 470.45 99.1834 470.984 99.0715 471.495C98.9596 472.007 98.6978 472.472 98.3203 472.831C97.9428 473.189 97.4674 473.423 96.9561 473.503L96.9037 473.511C96.866 473.517 96.8337 473.522 96.796 473.528C97.9295 476.269 99.5203 478.793 101.499 480.988C103.429 491.547 111.721 492.549 120.59 489.474H120.596C121.569 493.758 122.979 497.928 124.803 501.917H139.832C139.886 501.747 139.935 501.573 139.983 501.403C138.592 501.492 137.195 501.408 135.824 501.153C136.939 499.766 138.055 498.369 139.17 496.983C139.195 496.957 139.218 496.93 139.24 496.901C139.805 496.192 140.376 495.488 140.942 494.778L140.942 494.778C140.973 492.603 140.726 490.433 140.209 488.322Z" fill="#F2F2F2"/>
<path d="M302.843 488.322C303.231 488.34 303.615 488.237 303.943 488.027C304.271 487.817 304.527 487.509 304.676 487.146C304.826 486.784 304.862 486.383 304.78 485.999C304.697 485.615 304.5 485.266 304.215 484.999L304.085 484.476C304.102 484.435 304.12 484.393 304.137 484.351C304.527 483.417 305.182 482.62 306.018 482.061C306.854 481.502 307.834 481.206 308.836 481.209C309.838 481.213 310.816 481.517 311.648 482.082C312.48 482.647 313.129 483.449 313.513 484.386C315.046 488.128 316.998 491.876 317.479 495.832C317.691 497.58 317.601 499.353 317.215 501.071C320.817 493.112 322.687 484.461 322.699 475.705C322.7 473.508 322.579 471.313 322.338 469.129C322.139 467.339 321.862 465.562 321.509 463.797C319.578 454.223 315.433 445.25 309.415 437.613C306.502 436.003 304.146 433.527 302.665 430.519C302.128 429.438 301.749 428.283 301.539 427.092C301.868 427.136 302.778 422.066 302.53 421.755C302.988 421.051 303.808 420.701 304.308 420.014C306.795 416.597 310.222 417.194 312.011 421.837C315.833 423.791 315.87 427.031 313.525 430.148C312.033 432.131 311.828 434.814 310.519 436.937C310.654 437.111 310.794 437.281 310.929 437.455C313.39 440.662 315.536 444.106 317.335 447.737C316.897 443.669 317.42 439.554 318.858 435.731C320.316 432.167 323.049 429.166 325.456 426.086C326.092 425.258 326.957 424.641 327.94 424.311C328.923 423.981 329.98 423.954 330.979 424.232C331.977 424.511 332.871 425.084 333.549 425.877C334.226 426.671 334.656 427.65 334.784 428.691C334.789 428.737 334.793 428.782 334.798 428.827C334.441 429.032 334.091 429.248 333.748 429.478C333.318 429.769 332.985 430.185 332.792 430.671C332.599 431.157 332.556 431.691 332.668 432.203C332.78 432.715 333.042 433.18 333.419 433.538C333.797 433.897 334.272 434.131 334.783 434.211L334.836 434.219C334.708 435.524 334.483 436.818 334.162 438.088C337.25 450.184 330.584 454.59 321.067 454.788C320.857 454.897 320.652 455.006 320.442 455.11C322.249 460.298 323.383 465.702 323.814 471.187C324.058 474.422 324.044 477.673 323.771 480.906L323.787 480.791C324.477 477.196 326.37 473.952 329.147 471.607C333.272 468.174 339.1 466.91 343.55 464.151C344.022 463.843 344.572 463.679 345.134 463.678C345.696 463.676 346.247 463.838 346.721 464.143C347.196 464.448 347.574 464.885 347.812 465.401C348.049 465.917 348.137 466.491 348.063 467.055L348.045 467.176C347.381 467.449 346.735 467.765 346.111 468.12C345.753 468.324 345.403 468.541 345.061 468.77C344.631 469.061 344.297 469.477 344.105 469.963C343.912 470.45 343.869 470.984 343.981 471.495C344.092 472.007 344.354 472.472 344.732 472.831C345.109 473.189 345.585 473.423 346.096 473.503L346.148 473.511C346.186 473.517 346.218 473.522 346.256 473.528C345.123 476.269 343.532 478.793 341.553 480.988C339.623 491.547 331.331 492.549 322.462 489.474H322.456C321.483 493.758 320.073 497.928 318.249 501.916H303.22C303.166 501.747 303.117 501.573 303.069 501.403C304.46 501.492 305.857 501.408 307.228 501.153C306.113 499.766 304.998 498.369 303.882 496.983C303.858 496.957 303.834 496.93 303.812 496.901C303.247 496.192 302.676 495.488 302.11 494.778L302.11 494.778C302.08 492.603 302.326 490.433 302.843 488.322Z" fill="#F2F2F2"/>
<path d="M183.081 258.231L162.95 300.775L164.387 470.315H181.63C181.63 470.315 184.982 465.735 184.982 462.526C184.982 459.316 179.28 458.851 183.081 454.911C186.883 450.972 188.15 449.688 188.15 445.836V384.221L201.746 324.491L200.309 390.12L249.163 449.188L260.543 437.659C260.543 437.659 263.871 436.173 260.543 432.981C257.215 429.789 255.139 435.427 254.91 426.51C254.68 417.593 256.581 419.519 254.68 417.593C252.78 415.667 226.172 383.49 226.172 383.49C226.172 383.49 250.245 279.586 238.206 259.688L183.081 258.231Z" fill="#2F2E41"/>
<path d="M239.474 262.897C239.474 262.897 187.517 244.282 191.318 234.012C195.12 223.742 201.506 225.718 193.878 222.483C186.249 219.248 181.195 218.606 185.94 214.113C190.685 209.62 197.655 205.127 197.655 200.633C197.655 196.14 203.357 160.836 203.357 160.836H212.486L221.732 144.789H234.794L241.374 159.552H255.269L255.948 182.019C255.948 182.019 256.846 225.42 252.595 227.148C248.344 228.877 244.543 228.877 248.344 232.728C252.146 236.579 254.311 238.571 252.595 242.068C250.879 245.566 239.474 262.897 239.474 262.897Z" fill="#E6E6E6"/>
<path d="M247.077 165.971L255.269 159.552C255.269 159.552 269.254 159.552 271.155 167.255C273.056 174.958 284.497 193.795 284.497 193.795C284.497 193.795 295.866 187.154 300.301 187.154C304.737 187.154 307.905 190.363 307.905 186.512C307.905 182.661 305.37 182.019 309.172 182.019C312.974 182.019 323.112 178.167 323.112 178.167L333.926 189.122C333.926 189.122 332.616 199.35 328.181 198.708C323.745 198.066 321.211 194.856 321.211 198.708C321.211 202.559 323.745 208.336 318.043 208.978C312.34 209.62 274.323 219.248 274.323 219.248L248.344 180.735L247.077 165.971Z" fill="#E6E6E6"/>
<path d="M214.129 165.971L205.937 159.552C205.937 159.552 191.952 159.552 190.051 167.255C188.15 174.958 176.071 193.795 176.071 193.795C176.071 193.795 165.34 187.154 160.905 187.154C156.469 187.154 153.301 190.363 153.301 186.512C153.301 182.661 155.836 182.019 152.034 182.019C148.232 182.019 138.094 178.167 138.094 178.167L127.28 189.122C127.28 189.122 128.59 199.35 133.025 198.708C137.461 198.066 139.995 194.856 139.995 198.708C139.995 202.559 137.461 208.336 143.163 208.978C148.866 209.62 186.883 219.248 186.883 219.248L212.861 180.735L214.129 165.971Z" fill="#E6E6E6"/>
<path d="M226.744 141.303C237.911 141.303 246.964 132.132 246.964 120.818C246.964 109.505 237.911 100.334 226.744 100.334C215.576 100.334 206.523 109.505 206.523 120.818C206.523 132.132 215.576 141.303 226.744 141.303Z" fill="#FFB6B6"/>
<path d="M248.808 117.726C246.431 120.641 242.894 120.489 239.75 120.024C238.757 119.88 237.765 119.72 236.772 119.534C236.597 118.968 236.397 118.402 236.172 117.853C235.241 115.559 233.85 113.487 232.085 111.769C232.271 114.016 232.099 116.278 231.576 118.469C229.733 118.038 227.898 117.557 226.072 117.025C224.456 116.758 223.002 115.873 222.012 114.552C221.022 113.232 220.57 111.576 220.751 109.927C218.123 111.955 215.263 113.712 212.26 113.746C210.568 113.702 208.934 113.109 207.598 112.055C206.262 111.002 205.295 109.542 204.837 107.891C204.02 105.356 204.145 102.433 204.479 99.695C204.879 96.4421 205.78 92.868 207.948 91.5584C209.691 90.4938 211.701 91.2542 213.494 92.116C217.445 94.0368 221.19 96.3641 224.671 99.0613L224.712 99.9485C225.613 95.5803 228.591 92.209 231.835 91.871C234.02 91.6513 236.155 92.6737 238.215 93.7045C240.908 94.9079 243.412 96.5049 245.647 98.4446C248.172 100.771 249.925 103.831 250.668 107.206C251.443 110.865 250.859 115.208 248.808 117.726Z" fill="#2F2E41"/>
<path d="M228.791 89.2975C228.998 89.3151 228.489 89.1968 228.654 89.2671C228.573 89.2295 228.495 89.1854 228.421 89.135C228.408 89.1268 228.244 88.9922 228.352 89.0859C228.104 88.8908 227.918 88.6274 227.815 88.3274C227.585 87.5984 227.479 86.8354 227.499 86.0704C227.54 85.0651 227.371 84.0623 227.002 83.1278C226.893 82.8748 226.727 82.6514 226.516 82.4758C226.306 82.3003 226.057 82.1774 225.791 82.1173C225.525 82.0572 225.249 82.0615 224.985 82.1299C224.721 82.1982 224.476 82.3287 224.271 82.5108C223.588 83.1887 223.534 84.3341 223.486 85.2451C223.434 86.1908 223.533 87.1389 223.779 88.0528C224.202 89.5554 225.048 90.9009 226.213 91.9252C227.558 93.1187 229.247 93.8411 231.03 93.9853C231.275 93.9797 231.513 93.9021 231.715 93.7619C231.917 93.6217 232.075 93.425 232.168 93.1957C232.262 92.9664 232.288 92.7144 232.243 92.4704C232.198 92.2265 232.084 92.0011 231.914 91.8217L229.676 89.6687C229.441 89.431 229.123 89.2975 228.791 89.2975C228.459 89.2975 228.141 89.431 227.906 89.6687C227.672 89.9063 227.54 90.2287 227.54 90.5649C227.54 90.901 227.672 91.2233 227.906 91.461L230.145 93.6141L231.03 91.4505C230.66 91.4168 230.296 91.3413 229.943 91.2255C229.56 91.1178 229.194 90.9555 228.857 90.7434C228.526 90.5598 228.216 90.3403 227.932 90.0887C227.751 89.927 227.577 89.7561 227.413 89.5766C227.353 89.5114 227.295 89.445 227.237 89.3776C227.241 89.3824 227.002 89.0776 227.105 89.217C226.846 88.8584 226.621 88.4762 226.432 88.0752C226.365 87.9332 226.31 87.7859 226.268 87.6349C226.189 87.3863 226.124 87.1333 226.074 86.8772C225.978 86.3389 225.95 85.7906 225.988 85.2451C225.999 85.0138 226.022 84.7832 226.056 84.5542C226.088 84.4335 226.111 84.3107 226.126 84.1868C226.131 83.8791 226.085 84.3511 225.926 84.4228L225.295 84.5959C225.192 84.5874 225.092 84.5555 225.003 84.5027C224.914 84.4499 224.838 84.3775 224.781 84.2908C224.754 84.185 224.762 84.2037 224.803 84.347C224.85 84.5153 224.887 84.6864 224.913 84.8593C224.961 85.2613 224.989 85.6656 224.997 86.0705C225.005 86.9283 225.103 87.7827 225.29 88.6194C225.465 89.4601 225.898 90.2233 226.527 90.8002C227.155 91.3772 227.948 91.7384 228.791 91.8323C229.122 91.8296 229.439 91.6952 229.673 91.4581C229.907 91.221 230.039 90.9002 230.042 90.5649C230.035 90.2309 229.901 89.9124 229.668 89.6761C229.435 89.4398 229.121 89.3042 228.791 89.2975Z" fill="#2F2E41"/>
<path d="M332.058 171.566C325.179 162.296 321.202 151.929 321.072 140.11C320.85 139.473 320.887 138.773 321.174 138.164C321.461 137.554 321.975 137.085 322.604 136.859L346.054 128.454C346.682 128.229 347.373 128.266 347.975 128.557C348.577 128.848 349.04 129.369 349.263 130.005L360.249 161.461C360.471 162.098 360.434 162.798 360.147 163.408C359.86 164.017 359.346 164.486 358.718 164.712L335.268 173.118C334.639 173.342 333.948 173.305 333.346 173.014C332.745 172.723 332.282 172.203 332.058 171.566Z" fill="#57AE09"/>
<path opacity="0.2" d="M337.353 171.005C336.724 171.23 336.033 171.193 335.431 170.902C334.83 170.611 334.367 170.09 334.144 169.454C327.264 160.183 323.287 149.817 323.157 137.998C323.014 137.579 322.982 137.129 323.065 136.694L322.604 136.859C321.975 137.085 321.461 137.554 321.174 138.164C320.887 138.773 320.85 139.473 321.072 140.11C321.202 151.929 325.179 162.296 332.058 171.566C332.282 172.202 332.745 172.723 333.346 173.014C333.948 173.305 334.639 173.342 335.268 173.118L358.718 164.712C359.134 164.561 359.503 164.302 359.788 163.96C360.073 163.618 360.264 163.206 360.341 162.765L337.353 171.005Z" fill="black"/>
<path d="M348.339 147.461L332.64 153.138C332.39 153.229 332.115 153.215 331.876 153.1C331.636 152.985 331.451 152.778 331.362 152.525C331.273 152.272 331.286 151.993 331.4 151.75C331.514 151.507 331.718 151.32 331.968 151.23L347.667 145.553C347.79 145.508 347.921 145.489 348.053 145.495C348.184 145.502 348.312 145.535 348.431 145.592C348.55 145.648 348.656 145.729 348.744 145.827C348.832 145.926 348.901 146.041 348.945 146.166C348.989 146.292 349.008 146.425 349.002 146.558C348.995 146.69 348.963 146.821 348.907 146.941C348.85 147.061 348.771 147.169 348.674 147.258C348.577 147.348 348.463 147.417 348.339 147.461Z" fill="white"/>
<path d="M334.25 146.656L330.796 147.905C330.673 147.95 330.542 147.97 330.411 147.963C330.279 147.957 330.151 147.924 330.032 147.867C329.913 147.811 329.807 147.731 329.718 147.632C329.63 147.534 329.562 147.418 329.518 147.293C329.473 147.168 329.454 147.035 329.46 146.902C329.467 146.769 329.499 146.639 329.555 146.519C329.611 146.398 329.69 146.29 329.787 146.201C329.884 146.112 329.998 146.042 330.122 145.998L330.124 145.997L333.578 144.748C333.828 144.658 334.102 144.672 334.342 144.787C334.581 144.902 334.766 145.109 334.855 145.362C334.944 145.615 334.93 145.893 334.817 146.136C334.704 146.379 334.5 146.566 334.25 146.656Z" fill="white"/>
<path d="M351.295 155.851L335.596 161.528C335.347 161.619 335.072 161.605 334.832 161.491C334.592 161.376 334.407 161.169 334.317 160.916C334.228 160.663 334.241 160.385 334.355 160.142C334.468 159.899 334.672 159.711 334.922 159.621L334.924 159.62L350.623 153.943C350.872 153.853 351.147 153.867 351.387 153.982C351.626 154.097 351.811 154.304 351.9 154.557C351.989 154.81 351.975 155.088 351.862 155.331C351.749 155.574 351.545 155.761 351.295 155.851Z" fill="white"/>
<path d="M349.818 151.656L334.119 157.333C333.995 157.378 333.864 157.398 333.733 157.392C333.602 157.385 333.473 157.352 333.354 157.296C333.235 157.239 333.129 157.159 333.041 157.06C332.952 156.962 332.884 156.847 332.84 156.721C332.796 156.596 332.776 156.463 332.782 156.33C332.789 156.197 332.821 156.067 332.877 155.947C332.933 155.826 333.012 155.718 333.109 155.629C333.207 155.54 333.32 155.471 333.444 155.426L333.446 155.425L349.145 149.748C349.269 149.703 349.4 149.683 349.531 149.69C349.662 149.696 349.791 149.729 349.91 149.786C350.029 149.843 350.135 149.923 350.223 150.021C350.312 150.12 350.38 150.235 350.424 150.36C350.468 150.485 350.488 150.618 350.482 150.751C350.475 150.884 350.443 151.014 350.387 151.135C350.331 151.255 350.252 151.363 350.155 151.452C350.057 151.542 349.944 151.611 349.82 151.656L349.818 151.656Z" fill="white"/>
<path d="M333.704 137.185C336.008 137.185 337.875 135.293 337.875 132.96C337.875 130.627 336.008 128.735 333.704 128.735C331.401 128.735 329.534 130.627 329.534 132.96C329.534 135.293 331.401 137.185 333.704 137.185Z" fill="#3F3D56"/>
<path d="M127.782 63.8848C131.982 53.0953 138.623 44.2391 148.498 37.944C148.918 37.4194 149.526 37.085 150.189 37.0141C150.852 36.9432 151.516 37.1416 152.034 37.5658L171.373 53.4151C171.891 53.8405 172.221 54.4565 172.291 55.1281C172.361 55.7997 172.165 56.4721 171.746 56.9976L151.03 82.9384C150.61 83.4629 150.002 83.7974 149.339 83.8683C148.676 83.9392 148.013 83.7408 147.494 83.3166L128.155 67.4673C127.638 67.0419 127.308 66.4258 127.238 65.7542C127.168 65.0826 127.363 64.4103 127.782 63.8848Z" fill="#57AE09"/>
<path opacity="0.2" d="M131.023 68.1625C130.505 67.7372 130.175 67.1211 130.105 66.4495C130.035 65.7779 130.231 65.1056 130.65 64.5801C134.85 53.7905 141.491 44.9344 151.366 38.6392C151.643 38.2962 152.005 38.0335 152.415 37.8777L152.034 37.5658C151.516 37.1416 150.852 36.9432 150.189 37.0141C149.526 37.085 148.918 37.4194 148.498 37.944C138.623 44.2391 131.982 53.0953 127.782 63.8848C127.363 64.4103 127.168 65.0826 127.238 65.7543C127.308 66.4259 127.638 67.0419 128.155 67.4673L147.494 83.3166C147.838 83.597 148.25 83.7801 148.687 83.8474C149.124 83.9147 149.57 83.8639 149.981 83.7L131.023 68.1625Z" fill="black"/>
<path d="M156.577 65.3315L143.589 54.7469C143.383 54.5782 143.252 54.3337 143.223 54.0669C143.195 53.8002 143.273 53.533 143.439 53.3239C143.605 53.1149 143.846 52.9811 144.109 52.9518C144.372 52.9226 144.636 53.0003 144.843 53.168L157.831 63.7525C158.037 63.9212 158.168 64.1657 158.197 64.4325C158.225 64.6992 158.147 64.9663 157.981 65.1753C157.816 65.3844 157.574 65.5182 157.311 65.5474C157.048 65.5767 156.784 65.499 156.577 65.3315Z" fill="white"/>
<path d="M149.884 52.746L147.027 50.4174C146.821 50.2486 146.69 50.0041 146.662 49.7375C146.634 49.471 146.711 49.204 146.877 48.9951C147.043 48.7862 147.284 48.6524 147.547 48.623C147.81 48.5937 148.074 48.6712 148.281 48.8385L151.138 51.1671C151.344 51.3358 151.475 51.5803 151.503 51.847C151.531 52.1136 151.454 52.3807 151.288 52.5896C151.122 52.7986 150.881 52.9324 150.618 52.9617C150.355 52.991 150.091 52.9134 149.884 52.746Z" fill="white"/>
<path d="M151.066 72.2729L138.077 61.6883C137.871 61.5197 137.74 61.2751 137.712 61.0084C137.684 60.7416 137.761 60.4744 137.927 60.2653C138.093 60.0563 138.334 59.9225 138.597 59.8932C138.86 59.864 139.124 59.9417 139.331 60.1094L152.319 70.6939C152.525 70.8627 152.656 71.1072 152.684 71.3738C152.712 71.6404 152.635 71.9073 152.469 72.1162C152.303 72.3251 152.062 72.4589 151.799 72.4883C151.536 72.5176 151.272 72.4402 151.066 72.2729Z" fill="white"/>
<path d="M153.822 68.8022L140.833 58.2177C140.731 58.1346 140.645 58.0318 140.582 57.9153C140.519 57.7987 140.479 57.6707 140.464 57.5384C140.435 57.2714 140.511 57.0034 140.677 56.7936C140.843 56.5838 141.084 56.4492 141.348 56.4195C141.611 56.3899 141.876 56.4675 142.083 56.6354L142.087 56.6388L155.075 67.2233C155.283 67.3912 155.415 67.6356 155.445 67.9026C155.474 68.1697 155.397 68.4376 155.232 68.6475C155.066 68.8573 154.825 68.9919 154.561 69.0215C154.297 69.0512 154.033 68.9736 153.826 68.8057L153.822 68.8022Z" fill="white"/>
<path d="M161.121 49.3348C163.425 49.3348 165.292 47.4433 165.292 45.1101C165.292 42.7769 163.425 40.8855 161.121 40.8855C158.818 40.8855 156.951 42.7769 156.951 45.1101C156.951 47.4433 158.818 49.3348 161.121 49.3348Z" fill="#3F3D56"/>
<path d="M79.9468 190.186C69.7706 176.474 63.889 161.14 63.6962 143.658C63.3684 142.716 63.4228 141.681 63.8475 140.779C64.2723 139.878 65.0326 139.184 65.9619 138.849L100.648 126.416C101.578 126.084 102.6 126.139 103.49 126.57C104.38 127 105.065 127.77 105.395 128.712L121.645 175.239C121.973 176.181 121.919 177.217 121.494 178.118C121.069 179.02 120.309 179.714 119.38 180.048L84.6936 192.481C83.7637 192.813 82.7417 192.758 81.8518 192.328C80.9619 191.898 80.2768 191.127 79.9468 190.186Z" fill="#57AE09"/>
<path opacity="0.2" d="M87.7778 189.357C86.8479 189.689 85.8259 189.634 84.936 189.203C84.0461 188.773 83.361 188.003 83.0311 187.062C72.8549 173.349 66.9732 158.016 66.7804 140.534C66.5682 139.914 66.5212 139.249 66.6444 138.605L65.9619 138.849C65.0326 139.184 64.2723 139.878 63.8475 140.779C63.4228 141.681 63.3684 142.716 63.6962 143.658C63.8889 161.14 69.7706 176.474 79.9468 190.186C80.2768 191.127 80.9619 191.898 81.8518 192.328C82.7417 192.758 83.7637 192.813 84.6936 192.481L119.38 180.048C119.995 179.825 120.541 179.441 120.963 178.936C121.385 178.43 121.667 177.82 121.781 177.168L87.7778 189.357Z" fill="black"/>
<path d="M104.028 154.532L80.807 162.929C80.6239 162.995 80.4295 163.025 80.2351 163.016C80.0407 163.006 79.85 162.958 79.674 162.874C79.498 162.79 79.3401 162.671 79.2094 162.525C79.0787 162.379 78.9777 162.208 78.9123 162.022C78.8468 161.837 78.8182 161.64 78.8281 161.443C78.8379 161.246 78.886 161.053 78.9696 160.875C79.0532 160.697 79.1707 160.537 79.3153 160.405C79.4599 160.273 79.6288 160.171 79.8124 160.106L103.033 151.709C103.216 151.643 103.41 151.614 103.604 151.623C103.798 151.633 103.988 151.682 104.164 151.766C104.34 151.85 104.497 151.969 104.627 152.115C104.758 152.261 104.858 152.431 104.924 152.616C104.989 152.802 105.018 152.998 105.008 153.195C104.998 153.392 104.951 153.584 104.867 153.762C104.784 153.94 104.667 154.099 104.523 154.231C104.379 154.364 104.211 154.466 104.028 154.532Z" fill="white"/>
<path d="M83.1886 153.341L78.08 155.188C77.7108 155.32 77.3049 155.299 76.9513 155.129C76.5977 154.958 76.3252 154.653 76.1935 154.279C76.0619 153.905 76.0818 153.494 76.249 153.135C76.4162 152.777 76.7169 152.5 77.0854 152.365L82.1939 150.518C82.5631 150.386 82.969 150.407 83.3226 150.577C83.6763 150.748 83.9488 151.053 84.0804 151.427C84.2121 151.801 84.1921 152.212 84.0249 152.571C83.8578 152.929 83.557 153.206 83.1886 153.341Z" fill="white"/>
<path d="M108.401 166.942L85.1798 175.339C84.8103 175.472 84.4035 175.452 84.049 175.281C83.6944 175.111 83.4211 174.805 83.2892 174.431C83.1573 174.057 83.1776 173.645 83.3456 173.285C83.5137 172.926 83.8157 172.649 84.1852 172.516L107.406 164.119C107.589 164.053 107.783 164.024 107.977 164.033C108.171 164.043 108.361 164.092 108.537 164.176C108.712 164.26 108.87 164.379 109 164.525C109.131 164.671 109.231 164.841 109.297 165.026C109.362 165.212 109.391 165.408 109.381 165.605C109.371 165.802 109.323 165.994 109.24 166.172C109.157 166.35 109.04 166.509 108.896 166.642C108.752 166.774 108.584 166.876 108.401 166.942Z" fill="white"/>
<path d="M106.214 160.737L82.9933 169.134C82.8103 169.2 82.6163 169.229 82.4223 169.219C82.2282 169.209 82.038 169.161 81.8625 169.076C81.6869 168.992 81.5294 168.874 81.3991 168.728C81.2687 168.582 81.168 168.411 81.1027 168.226C81.0374 168.041 81.0088 167.844 81.0184 167.647C81.0281 167.451 81.0759 167.258 81.1591 167.08C81.2423 166.902 81.3593 166.743 81.5033 166.611C81.6474 166.479 81.8157 166.377 81.9987 166.311L105.22 157.914C105.402 157.848 105.597 157.819 105.791 157.828C105.985 157.838 106.175 157.887 106.35 157.971C106.526 158.055 106.683 158.174 106.814 158.32C106.944 158.466 107.045 158.636 107.11 158.821C107.175 159.007 107.204 159.203 107.194 159.4C107.185 159.596 107.137 159.789 107.054 159.967C106.97 160.145 106.854 160.304 106.709 160.436C106.565 160.568 106.397 160.671 106.214 160.737Z" fill="white"/>
<path d="M82.3812 139.331C85.7879 139.331 88.5495 136.533 88.5495 133.082C88.5495 129.631 85.7879 126.833 82.3812 126.833C78.9745 126.833 76.2129 129.631 76.2129 133.082C76.2129 136.533 78.9745 139.331 82.3812 139.331Z" fill="#3F3D56"/>
<path d="M308.841 416.191C297.392 416.132 286.838 413.068 277.47 406.023C276.835 405.817 276.308 405.364 276.002 404.763C275.697 404.163 275.639 403.464 275.842 402.821L283.422 378.82C283.625 378.177 284.073 377.642 284.665 377.333C285.258 377.024 285.948 376.965 286.583 377.17L317.953 387.338C318.588 387.545 319.116 387.998 319.421 388.598C319.726 389.199 319.784 389.897 319.582 390.541L312.002 414.541C311.798 415.184 311.35 415.719 310.758 416.029C310.165 416.338 309.476 416.396 308.841 416.191Z" fill="#F2F2F2"/>
<path opacity="0.2" d="M311.603 411.582C311.399 412.225 310.952 412.759 310.359 413.069C309.766 413.378 309.077 413.437 308.442 413.231C296.993 413.173 286.44 410.109 277.071 403.064C276.655 402.926 276.282 402.679 275.991 402.349L275.842 402.821C275.639 403.465 275.697 404.163 276.002 404.763C276.308 405.364 276.835 405.817 277.47 406.023C286.838 413.068 297.392 416.132 308.84 416.191C309.476 416.396 310.165 416.338 310.758 416.029C311.35 415.719 311.798 415.184 312.002 414.541L319.582 390.541C319.715 390.114 319.734 389.659 319.638 389.222C319.542 388.785 319.333 388.382 319.034 388.053L311.603 411.582Z" fill="black"/>
<path d="M299.744 388.476L294.708 404.574C294.669 404.701 294.606 404.819 294.522 404.921C294.437 405.024 294.334 405.108 294.218 405.17C294.101 405.232 293.974 405.27 293.843 405.282C293.712 405.294 293.58 405.28 293.455 405.24C293.329 405.2 293.213 405.136 293.112 405.051C293.011 404.965 292.928 404.861 292.867 404.743C292.806 404.625 292.769 404.496 292.757 404.363C292.745 404.23 292.759 404.097 292.799 403.97L292.801 403.962L297.837 387.864C297.918 387.609 298.095 387.397 298.33 387.274C298.565 387.151 298.839 387.128 299.091 387.209C299.343 387.29 299.553 387.468 299.676 387.706C299.798 387.943 299.822 388.22 299.744 388.476Z" fill="white"/>
<path d="M290.587 399.354L289.479 402.895C289.44 403.022 289.377 403.14 289.292 403.242C289.208 403.344 289.105 403.429 288.989 403.491C288.872 403.552 288.745 403.59 288.614 403.602C288.484 403.614 288.352 403.6 288.226 403.56C288.101 403.52 287.985 403.456 287.884 403.371C287.783 403.286 287.7 403.181 287.639 403.063C287.578 402.945 287.54 402.817 287.528 402.684C287.517 402.552 287.531 402.418 287.57 402.291L287.572 402.283L288.68 398.742C288.719 398.615 288.783 398.497 288.867 398.394C288.951 398.292 289.054 398.208 289.171 398.146C289.287 398.084 289.414 398.047 289.545 398.035C289.676 398.023 289.808 398.037 289.933 398.077C290.058 398.116 290.175 398.181 290.276 398.266C290.376 398.351 290.46 398.456 290.521 398.574C290.582 398.691 290.619 398.82 290.631 398.953C290.643 399.085 290.629 399.219 290.589 399.346L290.587 399.354Z" fill="white"/>
<path d="M308.127 391.167L303.091 407.265C303.052 407.392 302.989 407.51 302.905 407.612C302.821 407.714 302.717 407.799 302.601 407.86C302.485 407.922 302.357 407.96 302.227 407.972C302.096 407.984 301.964 407.97 301.839 407.93C301.713 407.89 301.597 407.826 301.496 407.741C301.395 407.656 301.312 407.551 301.251 407.433C301.19 407.315 301.153 407.186 301.141 407.054C301.129 406.921 301.143 406.788 301.182 406.661L301.185 406.653L306.22 390.555C306.259 390.428 306.322 390.31 306.407 390.207C306.491 390.105 306.594 390.02 306.71 389.958C306.827 389.896 306.954 389.858 307.085 389.846C307.216 389.834 307.348 389.848 307.474 389.888C307.599 389.928 307.716 389.992 307.817 390.078C307.918 390.163 308.001 390.268 308.062 390.386C308.123 390.504 308.16 390.633 308.172 390.766C308.183 390.899 308.169 391.032 308.129 391.159L308.127 391.167Z" fill="white"/>
<path d="M303.935 389.822L298.9 405.919C298.861 406.047 298.797 406.165 298.713 406.267C298.629 406.369 298.526 406.454 298.409 406.516C298.293 406.578 298.166 406.616 298.035 406.628C297.904 406.64 297.772 406.626 297.646 406.586C297.521 406.546 297.404 406.482 297.303 406.396C297.202 406.311 297.119 406.206 297.058 406.088C296.997 405.97 296.96 405.841 296.948 405.709C296.937 405.576 296.951 405.442 296.99 405.315L296.993 405.307L302.028 389.21C302.067 389.083 302.131 388.965 302.215 388.863C302.299 388.76 302.402 388.676 302.519 388.614C302.635 388.553 302.762 388.515 302.893 388.503C303.024 388.491 303.156 388.505 303.281 388.545C303.407 388.584 303.523 388.649 303.624 388.734C303.725 388.819 303.808 388.924 303.869 389.042C303.93 389.159 303.967 389.288 303.979 389.421C303.991 389.553 303.977 389.687 303.938 389.814L303.935 389.822Z" fill="white"/>
<path d="M279.492 395.732C281.796 395.732 283.663 393.841 283.663 391.508C283.663 389.175 281.796 387.283 279.492 387.283C277.189 387.283 275.322 389.175 275.322 391.508C275.322 393.841 277.189 395.732 279.492 395.732Z" fill="#CCCCCC"/>
<path d="M371.294 226.556C371.701 224.927 370.158 223.126 367.846 222.532C365.535 221.939 363.331 222.778 362.923 224.407C362.516 226.036 364.059 227.838 366.371 228.431C368.682 229.025 370.886 228.185 371.294 226.556Z" fill="white"/>
<path d="M343.067 226.372C343.475 224.743 341.931 222.941 339.62 222.348C337.308 221.754 335.104 222.594 334.697 224.223C334.289 225.852 335.833 227.653 338.144 228.247C340.456 228.84 342.66 228.001 343.067 226.372Z" fill="#3F3D56"/>
<path d="M376.592 250.28C376.999 248.651 375.456 246.85 373.144 246.256C370.833 245.663 368.629 246.503 368.221 248.131C367.814 249.76 369.357 251.562 371.669 252.155C373.98 252.749 376.184 251.909 376.592 250.28Z" fill="#FF6584"/>
<path d="M383.172 259.226C383.339 257.709 382.63 256.384 381.588 256.266C380.546 256.148 379.566 257.282 379.399 258.799C379.231 260.316 379.94 261.642 380.982 261.76C382.024 261.878 383.004 260.744 383.172 259.226Z" fill="#E6E6E6"/>
<path d="M385.492 277.145C385.659 275.628 384.95 274.302 383.908 274.185C382.867 274.067 381.886 275.201 381.719 276.718C381.552 278.235 382.261 279.561 383.302 279.679C384.344 279.797 385.325 278.662 385.492 277.145Z" fill="#3F3D56"/>
<path d="M356.635 242.997C356.802 241.48 356.093 240.154 355.051 240.036C354.009 239.918 353.029 241.052 352.862 242.57C352.694 244.087 353.403 245.412 354.445 245.53C355.487 245.648 356.467 244.514 356.635 242.997Z" fill="#E6E6E6"/>
<path d="M370.84 237.591C371.007 236.073 370.298 234.748 369.256 234.63C368.214 234.512 367.234 235.646 367.067 237.163C366.899 238.681 367.608 240.006 368.65 240.124C369.692 240.242 370.672 239.108 370.84 237.591Z" fill="#FF6584"/>
<path d="M353.34 222.985C353.507 221.467 352.798 220.142 351.756 220.024C350.714 219.906 349.734 221.04 349.567 222.558C349.399 224.075 350.108 225.4 351.15 225.518C352.192 225.636 353.172 224.502 353.34 222.985Z" fill="#3F3D56"/>
<path d="M107.738 216.417C108.146 214.788 106.602 212.987 104.291 212.393C101.979 211.8 99.7752 212.639 99.3677 214.268C98.9602 215.897 100.504 217.699 102.815 218.292C105.126 218.885 107.331 218.046 107.738 216.417Z" fill="white"/>
<path d="M79.5105 216.233C79.918 214.604 78.3746 212.802 76.0632 212.209C73.7518 211.615 71.5477 212.455 71.1402 214.084C70.7327 215.713 72.2761 217.514 74.5875 218.108C76.8989 218.701 79.1031 217.862 79.5105 216.233Z" fill="#3F3D56"/>
<path d="M113.035 240.141C113.442 238.512 111.899 236.711 109.588 236.117C107.276 235.524 105.072 236.363 104.665 237.992C104.257 239.621 105.801 241.423 108.112 242.016C110.423 242.61 112.627 241.77 113.035 240.141Z" fill="#FF6584"/>
<path d="M119.615 249.087C119.782 247.57 119.073 246.244 118.032 246.126C116.99 246.008 116.009 247.143 115.842 248.66C115.675 250.177 116.384 251.503 117.426 251.621C118.467 251.739 119.448 250.604 119.615 249.087Z" fill="#E6E6E6"/>
<path d="M121.936 267.006C122.104 265.489 121.395 264.163 120.353 264.045C119.311 263.927 118.331 265.062 118.163 266.579C117.996 268.096 118.705 269.422 119.747 269.54C120.789 269.658 121.769 268.523 121.936 267.006Z" fill="#3F3D56"/>
<path d="M93.0779 232.858C93.2452 231.34 92.5363 230.015 91.4944 229.897C90.4526 229.779 89.4723 230.913 89.305 232.431C89.1376 233.948 89.8465 235.273 90.8884 235.391C91.9303 235.509 92.9105 234.375 93.0779 232.858Z" fill="#E6E6E6"/>
<path d="M107.283 227.452C107.45 225.934 106.741 224.609 105.7 224.491C104.658 224.373 103.677 225.507 103.51 227.024C103.343 228.542 104.052 229.867 105.093 229.985C106.135 230.103 107.116 228.969 107.283 227.452Z" fill="#FF6584"/>
<path d="M89.783 212.846C89.9503 211.328 89.2414 210.003 88.1995 209.885C87.1576 209.767 86.1774 210.901 86.01 212.419C85.8427 213.936 86.5516 215.261 87.5935 215.379C88.6353 215.497 89.6156 214.363 89.783 212.846Z" fill="#3F3D56"/>
<path d="M287.854 297.46C280.975 288.19 276.998 277.823 276.868 266.004C276.646 265.367 276.683 264.667 276.97 264.058C277.257 263.449 277.771 262.979 278.4 262.753L301.85 254.348C302.478 254.123 303.169 254.16 303.771 254.451C304.373 254.742 304.836 255.263 305.059 255.899L316.045 287.355C316.267 287.992 316.23 288.692 315.943 289.302C315.656 289.911 315.142 290.38 314.514 290.606L291.063 299.012C290.435 299.237 289.744 299.199 289.142 298.908C288.541 298.617 288.077 298.097 287.854 297.46Z" fill="#F2F2F2"/>
<path opacity="0.2" d="M293.149 296.9C292.52 297.124 291.829 297.087 291.227 296.796C290.626 296.505 290.163 295.984 289.939 295.348C283.06 286.077 279.083 275.711 278.953 263.892C278.809 263.473 278.778 263.023 278.861 262.588L278.4 262.753C277.771 262.979 277.257 263.448 276.97 264.058C276.683 264.667 276.646 265.367 276.868 266.004C276.998 277.823 280.975 288.19 287.854 297.46C288.077 298.097 288.541 298.617 289.142 298.908C289.744 299.199 290.435 299.236 291.064 299.012L314.514 290.606C314.93 290.456 315.299 290.196 315.584 289.854C315.869 289.512 316.06 289.1 316.137 288.659L293.149 296.9Z" fill="black"/>
<path d="M304.135 273.356L288.436 279.032C288.186 279.123 287.911 279.109 287.671 278.994C287.432 278.879 287.247 278.672 287.158 278.419C287.069 278.166 287.082 277.887 287.196 277.644C287.31 277.401 287.514 277.214 287.764 277.124L303.462 271.447C303.586 271.402 303.717 271.383 303.848 271.389C303.98 271.396 304.108 271.429 304.227 271.486C304.346 271.543 304.452 271.623 304.54 271.721C304.628 271.82 304.696 271.935 304.741 272.061C304.785 272.186 304.804 272.319 304.798 272.452C304.791 272.585 304.759 272.715 304.702 272.835C304.646 272.955 304.567 273.063 304.47 273.153C304.372 273.242 304.259 273.311 304.135 273.356Z" fill="white"/>
<path d="M290.046 272.55L286.592 273.799C286.469 273.844 286.338 273.864 286.206 273.858C286.075 273.851 285.947 273.818 285.828 273.762C285.709 273.705 285.603 273.625 285.514 273.526C285.426 273.428 285.358 273.313 285.313 273.187C285.269 273.062 285.25 272.929 285.256 272.796C285.262 272.663 285.295 272.533 285.351 272.413C285.407 272.292 285.486 272.184 285.583 272.095C285.68 272.006 285.794 271.937 285.918 271.892L285.92 271.891L289.374 270.642C289.623 270.552 289.898 270.566 290.138 270.681C290.377 270.796 290.562 271.003 290.651 271.256C290.74 271.509 290.726 271.787 290.613 272.03C290.5 272.273 290.296 272.46 290.046 272.55Z" fill="white"/>
<path d="M307.091 281.746L291.392 287.423C291.269 287.467 291.137 287.487 291.006 287.481C290.875 287.474 290.746 287.442 290.628 287.385C290.509 287.328 290.402 287.248 290.314 287.149C290.226 287.051 290.158 286.936 290.113 286.81C290.069 286.685 290.049 286.552 290.056 286.419C290.062 286.287 290.094 286.156 290.151 286.036C290.207 285.916 290.286 285.808 290.383 285.718C290.48 285.629 290.594 285.56 290.717 285.515L290.72 285.514L306.419 279.837C306.668 279.747 306.943 279.761 307.183 279.876C307.422 279.992 307.607 280.198 307.696 280.451C307.785 280.704 307.771 280.982 307.658 281.225C307.545 281.468 307.341 281.655 307.091 281.746Z" fill="white"/>
<path d="M305.614 277.551L289.915 283.227C289.791 283.272 289.66 283.292 289.529 283.286C289.398 283.279 289.269 283.247 289.15 283.19C289.031 283.133 288.925 283.053 288.837 282.954C288.748 282.856 288.68 282.741 288.636 282.615C288.591 282.49 288.572 282.357 288.578 282.224C288.585 282.091 288.617 281.961 288.673 281.841C288.729 281.721 288.808 281.613 288.905 281.523C289.003 281.434 289.116 281.365 289.24 281.32L289.242 281.319L304.941 275.642C305.191 275.552 305.466 275.565 305.706 275.68C305.945 275.795 306.131 276.001 306.22 276.254C306.309 276.507 306.296 276.786 306.183 277.029C306.069 277.272 305.866 277.459 305.616 277.55L305.614 277.551Z" fill="white"/>
<path d="M289.5 263.079C291.803 263.079 293.67 261.187 293.67 258.854C293.67 256.521 291.803 254.629 289.5 254.629C287.197 254.629 285.33 256.521 285.33 258.854C285.33 261.187 287.197 263.079 289.5 263.079Z" fill="#CCCCCC"/>
</g>
<defs>
<clipPath id="clip0_609_1239">
<rect width="325" height="466" fill="white" transform="translate(62 37)"/>
</clipPath>
</defs>
</svg>
