<svg width="468" height="550" viewBox="0 0 468 550" fill="none" xmlns="http://www.w3.org/2000/svg">
<circle cx="242.658" cy="289.46" r="225" fill="#FFE2C7"/>
<path d="M373.304 302.487C373.692 302.505 374.076 302.402 374.404 302.192C374.731 301.982 374.988 301.674 375.137 301.312C375.287 300.949 375.323 300.548 375.241 300.164C375.158 299.78 374.961 299.431 374.676 299.164L374.546 298.642C374.563 298.6 374.58 298.558 374.598 298.516C374.988 297.582 375.643 296.785 376.479 296.226C377.315 295.667 378.295 295.371 379.297 295.374C380.299 295.378 381.277 295.682 382.109 296.247C382.941 296.812 383.59 297.614 383.973 298.551C385.507 302.293 387.459 306.041 387.94 309.997C388.152 311.745 388.062 313.518 387.676 315.236C391.278 307.277 393.148 298.626 393.16 289.87C393.161 287.673 393.04 285.478 392.799 283.294C392.6 281.504 392.323 279.727 391.969 277.963C390.039 268.388 385.894 259.415 379.876 251.779C376.963 250.168 374.607 247.692 373.126 244.684C372.589 243.603 372.21 242.448 372 241.257C372.329 241.301 373.239 236.231 372.991 235.92C373.449 235.216 374.269 234.866 374.769 234.179C377.256 230.762 380.683 231.359 382.472 236.002C386.294 237.956 386.331 241.196 383.986 244.313C382.494 246.296 382.289 248.979 380.98 251.102C381.115 251.277 381.255 251.446 381.39 251.62C383.851 254.827 385.997 258.271 387.796 261.902C387.358 257.834 387.88 253.719 389.319 249.896C390.777 246.332 393.51 243.331 395.917 240.251C396.553 239.423 397.418 238.806 398.401 238.476C399.384 238.146 400.441 238.119 401.44 238.397C402.438 238.676 403.332 239.249 404.009 240.042C404.687 240.836 405.117 241.815 405.245 242.856C405.249 242.902 405.254 242.947 405.259 242.992C404.902 243.197 404.552 243.413 404.209 243.643C403.779 243.934 403.446 244.35 403.253 244.836C403.06 245.322 403.017 245.856 403.129 246.368C403.241 246.88 403.503 247.345 403.88 247.703C404.258 248.062 404.733 248.296 405.244 248.376L405.297 248.384C405.169 249.689 404.944 250.983 404.623 252.253C407.711 264.349 401.045 268.755 391.528 268.953C391.318 269.062 391.113 269.171 390.903 269.275C392.71 274.463 393.844 279.867 394.275 285.352C394.519 288.587 394.505 291.838 394.232 295.071L394.248 294.956C394.938 291.361 396.831 288.117 399.608 285.772C403.733 282.339 409.561 281.075 414.01 278.316C414.483 278.008 415.033 277.844 415.595 277.843C416.157 277.841 416.708 278.003 417.182 278.308C417.657 278.613 418.035 279.05 418.273 279.566C418.51 280.082 418.597 280.656 418.524 281.22L418.505 281.341C417.842 281.614 417.196 281.93 416.572 282.285C416.214 282.489 415.864 282.706 415.522 282.935C415.092 283.226 414.758 283.642 414.566 284.128C414.373 284.615 414.33 285.149 414.442 285.66C414.553 286.172 414.815 286.637 415.193 286.996C415.57 287.354 416.046 287.588 416.557 287.668L416.609 287.676C416.647 287.682 416.679 287.687 416.717 287.693C415.584 290.434 413.993 292.958 412.014 295.153C410.084 305.712 401.792 306.714 392.923 303.639H392.917C391.944 307.923 390.534 312.093 388.71 316.082H373.681C373.627 315.912 373.578 315.738 373.53 315.568C374.921 315.657 376.318 315.573 377.689 315.318C376.574 313.931 375.458 312.534 374.343 311.148C374.318 311.122 374.295 311.095 374.273 311.066C373.708 310.357 373.137 309.653 372.571 308.943L372.571 308.943C372.541 306.768 372.787 304.598 373.304 302.487Z" fill="#4E7D23"/>
<path d="M374.047 275.419C373.764 275.437 373.484 275.334 373.244 275.124C373.005 274.914 372.818 274.607 372.708 274.244C372.599 273.882 372.573 273.482 372.633 273.098C372.693 272.714 372.837 272.365 373.045 272.099L373.14 271.577C373.128 271.535 373.115 271.493 373.103 271.452C372.817 270.518 372.339 269.722 371.729 269.164C371.118 268.605 370.402 268.309 369.67 268.313C368.938 268.317 368.224 268.62 367.616 269.185C367.008 269.749 366.535 270.55 366.254 271.487C365.134 275.225 363.708 278.969 363.357 282.921C363.203 284.668 363.268 286.439 363.55 288.155C360.919 280.204 359.553 271.561 359.545 262.814C359.544 260.619 359.632 258.426 359.808 256.245C359.954 254.456 360.156 252.681 360.414 250.918C361.824 241.353 364.851 232.388 369.247 224.759C371.375 223.151 373.096 220.677 374.178 217.672C374.57 216.591 374.847 215.438 375 214.248C374.76 214.292 374.095 209.227 374.276 208.916C373.942 208.213 373.343 207.863 372.978 207.177C371.161 203.764 368.658 204.36 367.351 208.998C364.559 210.95 364.532 214.187 366.245 217.301C367.335 219.282 367.485 221.963 368.441 224.083C368.342 224.258 368.24 224.427 368.142 224.601C366.344 227.805 364.776 231.245 363.463 234.873C363.782 230.809 363.401 226.698 362.35 222.878C361.285 219.319 359.289 216.32 357.531 213.243C357.066 212.416 356.435 211.799 355.717 211.47C354.999 211.14 354.226 211.113 353.497 211.391C352.768 211.67 352.115 212.242 351.62 213.034C351.125 213.827 350.811 214.806 350.718 215.846C350.714 215.891 350.711 215.936 350.707 215.982C350.968 216.186 351.224 216.402 351.474 216.632C351.788 216.922 352.032 217.338 352.172 217.824C352.313 218.31 352.345 218.843 352.263 219.354C352.181 219.865 351.99 220.33 351.714 220.688C351.439 221.046 351.091 221.28 350.718 221.36L350.68 221.368C350.773 222.672 350.937 223.964 351.172 225.234C348.916 237.318 353.785 241.719 360.737 241.917C360.89 242.026 361.04 242.135 361.193 242.238C359.873 247.422 359.045 252.821 358.73 258.3C358.552 261.532 358.562 264.78 358.762 268.01L358.75 267.895C358.246 264.304 356.863 261.063 354.835 258.72C351.822 255.29 347.565 254.028 344.315 251.271C343.97 250.964 343.568 250.8 343.158 250.798C342.747 250.797 342.345 250.958 341.998 251.263C341.652 251.568 341.375 252.004 341.202 252.52C341.028 253.035 340.965 253.608 341.019 254.172L341.032 254.293C341.516 254.566 341.988 254.881 342.444 255.236C342.706 255.44 342.961 255.657 343.211 255.886C343.525 256.177 343.769 256.592 343.91 257.078C344.05 257.564 344.082 258.097 344 258.608C343.919 259.119 343.727 259.584 343.452 259.942C343.176 260.3 342.829 260.535 342.455 260.614L342.417 260.622C342.389 260.628 342.366 260.633 342.338 260.639C343.166 263.378 344.328 265.899 345.773 268.092C347.183 278.641 353.239 279.641 359.718 276.569H359.722C360.432 280.849 361.462 285.015 362.795 289H373.772C373.812 288.831 373.847 288.657 373.883 288.487C372.866 288.576 371.846 288.492 370.845 288.237C371.659 286.852 372.474 285.456 373.288 284.071C373.307 284.046 373.324 284.018 373.34 283.99C373.753 283.281 374.17 282.578 374.583 281.869L374.583 281.868C374.605 279.695 374.425 277.528 374.047 275.419Z" fill="#597E37"/>
<path d="M168.612 346.531L113.815 303.323C111.499 301.486 110.002 298.815 109.645 295.888C109.289 292.961 110.103 290.011 111.912 287.676C112.847 286.468 114.02 285.463 115.359 284.721C116.697 283.979 118.173 283.516 119.697 283.361C121.221 283.206 122.761 283.361 124.223 283.818C125.685 284.275 127.038 285.023 128.199 286.017L183.738 332.637L218.684 359.549C220.446 358.561 222.47 358.137 224.482 358.335C226.494 358.533 228.395 359.343 229.929 360.655C231.463 361.966 232.553 363.716 233.053 365.667C233.553 367.617 233.438 369.674 232.724 371.557C232.009 373.44 230.73 375.058 229.059 376.192C227.389 377.325 225.408 377.92 223.387 377.894C221.365 377.868 219.401 377.222 217.76 376.046C216.12 374.87 214.883 373.219 214.218 371.318L168.612 346.531Z" fill="#FFB6B6"/>
<path d="M120.994 317.141C120.272 317.24 119.538 317.1 118.904 316.743C118.27 316.385 117.771 315.831 117.484 315.164C117.114 314.348 116.498 313.667 115.721 313.217C115.57 313.132 115.413 313.056 115.252 312.991C114.271 312.624 113.394 312.026 112.695 311.249C111.997 310.471 111.497 309.537 111.238 308.526C110.434 305.187 107.856 301.947 105.266 299.449C102.432 296.715 99.4059 294.092 97.3112 290.762C94.2896 285.958 93.4418 279.216 99.2718 275.209C101.778 273.542 104.784 272.787 107.784 273.07C114.065 273.579 119.258 277.395 124.192 281.093L122.957 278.679C128.275 282.811 134.376 285.832 140.895 287.559C139.768 288.58 140.745 290.623 142.193 291.097C143.641 291.572 145.201 291.072 146.692 290.757C148.572 290.36 150.896 290.393 151.637 292.628C151.799 293.167 151.848 293.735 151.78 294.294C151.711 294.853 151.527 295.392 151.24 295.876C146.003 305.155 138.896 313.255 130.364 319.667C128.468 321.09 126.268 322.491 123.91 322.212C121.553 321.934 119.548 319.016 120.994 317.141Z" fill="#57AE09"/>
<path d="M77.5543 377.455L72.4392 352.904L126.199 336.042L118.96 392.555L77.5543 377.455Z" fill="#FFB6B6"/>
<path d="M124.709 355.507L72.8984 377.756C72.8984 377.756 66.2387 377.465 66.2387 373.458C66.2387 369.452 69.9613 368.613 65.0822 365.527C60.2032 362.44 58.1914 364.444 59.1973 359.435C60.2032 354.427 61.2091 352.771 61.2091 351.596C61.2091 350.421 60.2032 345.413 60.2032 340.405C60.2032 337.977 68.0367 333.568 66.0878 319.34C63.7135 302.005 64.5465 275.477 81.3271 270.291L93.398 249.257H116.407L123.575 270.291L132.072 281.378C132.072 281.378 148.831 302.482 143.802 313.5C138.772 324.518 124.709 355.507 124.709 355.507Z" fill="#2F2E41"/>
<path d="M227.086 388.868C226.995 370.987 224.021 353.237 218.275 336.296C216.625 331.435 214.751 326.659 212.651 321.969C211.881 320.246 209.235 321.53 210.006 323.254C217.143 339.242 221.66 356.266 223.385 373.678C223.878 378.654 224.134 383.644 224.152 388.648C224.161 390.521 227.096 390.757 227.086 388.868Z" fill="#3F3D56"/>
<path d="M212.346 319.697L214.009 324.609C199.879 323.206 198.184 305.492 188.88 294.816C179.569 284.151 162.754 280.631 163.336 266.508C163.423 264.466 163.747 262.179 165.357 260.904C167.371 259.327 170.314 260.104 172.68 261.081C175.177 262.122 177.6 263.331 179.932 264.7C180.669 266.653 181.404 268.608 182.137 270.562C182.385 271.232 182.818 271.819 183.386 272.255C183.955 272.691 184.635 272.958 185.35 273.025C186.064 273.092 186.783 272.956 187.423 272.634C188.063 272.312 188.599 271.816 188.968 271.204L189.004 271.142C217.149 271.1 220.375 294.117 212.346 319.697Z" fill="#57AE09"/>
<path d="M213.092 325.258C206.178 327.983 200.341 322.179 193.436 319.439C186.522 316.689 178.608 317.037 175.465 310.318C175.184 309.859 175.002 309.346 174.932 308.813C174.862 308.279 174.906 307.737 175.06 307.222C175.614 306 177.174 305.666 178.51 305.55C180.373 305.403 182.244 305.422 184.103 305.607C184.554 306.414 184.994 307.23 185.443 308.048C186.205 309.427 186.957 310.805 187.718 312.184C189.095 310.648 190.225 308.909 191.068 307.029C203.802 301.729 209.353 311.15 211.13 323.368L213.092 325.258Z" fill="#57AE09"/>
<path d="M211.175 325.115C217.602 328.838 224.245 323.968 231.484 322.286C238.733 320.595 246.506 322.117 250.621 315.941C250.969 315.529 251.225 315.049 251.375 314.533C251.524 314.016 251.562 313.473 251.487 312.94C251.122 311.65 249.63 311.088 248.326 310.775C246.507 310.352 244.654 310.092 242.788 309.998C242.221 310.729 241.664 311.471 241.096 312.212C240.136 313.462 239.186 314.713 238.226 315.964C237.095 314.24 236.239 312.352 235.688 310.367C223.892 303.232 216.99 311.721 213.399 323.538L211.175 325.115Z" fill="#57AE09"/>
<path d="M211.301 325.371C218.265 322.777 218.688 314.573 221.965 307.931C225.243 301.274 231.349 296.248 229.156 289.165C229.056 288.637 228.845 288.135 228.538 287.693C228.231 287.25 227.833 286.877 227.372 286.598C226.138 286.061 224.756 286.855 223.687 287.662C222.206 288.795 220.83 290.059 219.575 291.437C219.785 292.337 220.008 293.236 220.225 294.143C220.588 295.675 220.959 297.199 221.323 298.731C219.266 298.51 217.257 297.975 215.366 297.142C202.349 301.712 204.575 312.407 211.484 322.659L211.301 325.371Z" fill="#57AE09"/>
<path d="M95.29 228.058C112.202 240.868 131.037 251.064 134.587 265.161C134.587 265.161 132.46 243.011 142.38 247.209C159.048 254.264 153.408 215.898 148.734 209.624C140.944 199.169 114.676 193.227 114.676 193.227L96.0408 203.413L95.29 228.058Z" fill="#2F2E41"/>
<path d="M124.739 243.603C140.871 243.603 153.948 230.582 153.948 214.519C153.948 198.456 140.871 185.435 124.739 185.435C108.608 185.435 95.5308 198.456 95.5308 214.519C95.5308 230.582 108.608 243.603 124.739 243.603Z" fill="#FFB6B6"/>
<path d="M114.22 203.391L113.096 208.307L132.744 212.76C132.762 211.766 132.985 210.786 133.401 209.882C133.817 208.978 134.416 208.17 135.16 207.507C134.736 209.434 134.785 211.435 135.301 213.34C145.898 219.261 145.289 221.358 153.853 219.849C155.013 220.112 156.231 219.905 157.238 219.274C158.245 218.643 158.959 217.639 159.223 216.484C162.669 201.413 163.801 186.009 148.74 182.268C145.079 181.357 141.272 181.182 137.542 181.755C133.813 182.327 130.235 183.636 127.02 185.603C123.805 187.571 121.017 190.157 118.819 193.212C116.621 196.266 115.057 199.727 114.22 203.391Z" fill="#2F2E41"/>
<path d="M119.026 223.003C119.988 218.805 121.874 214.871 124.547 211.487C127.221 208.102 130.616 205.35 134.487 203.43C138.358 201.51 142.608 200.47 146.932 200.383C151.256 200.297 155.545 201.168 159.49 202.933C158.123 198.917 155.358 195.521 151.694 193.36L129.578 183.799C118.669 181.326 101.4 174.308 93.5208 181.029C86.2612 187.203 89.7945 199.29 83.1095 206.059C75.7833 213.477 75.161 222.249 77.2387 227.294C79.6423 233.13 84.4509 241.093 90.4518 242.817C90.7641 240.763 91.7932 238.884 93.3583 237.51C92.9257 239.468 92.888 241.491 93.2475 243.464L129.578 272.316C126.185 269.377 123.294 261.805 121.303 253.277C120.124 248.229 113.093 246.457 118.796 237.89C124.498 229.322 118.252 226.39 119.026 223.003Z" fill="#2F2E41"/>
<path d="M89.9273 190.822L90.0292 191.025C90.1538 191.296 90.2784 191.566 90.3803 191.848L90.3916 191.859C90.9465 192.062 91.5694 191.735 92.1809 191.217C92.0855 192.436 92.0175 193.616 91.9665 194.772L111.308 187.236C107.944 187.814 107.447 175.898 105.034 178.181C104.898 178.305 104.774 178.429 104.649 178.553C104.95 177.835 105.155 177.08 105.261 176.309C105.364 175.341 105.287 174.363 105.034 173.423C105.03 173.418 105.027 173.413 105.025 173.407C105.023 173.401 105.022 173.395 105.023 173.389C104.782 172.539 104.407 171.732 103.913 170.998C103.201 169.931 102.299 169.003 101.252 168.258C99.9163 167.242 98.3591 166.553 96.7065 166.247C95.0538 165.942 93.3521 166.028 91.7392 166.499C88.0447 167.891 84.9908 170.583 83.1553 174.065C81.6264 176.805 80.46 179.884 80.6978 183.007C80.7671 183.835 80.9461 184.651 81.2301 185.432C81.5833 186.529 82.186 187.53 82.9913 188.358C83.7966 189.185 84.7828 189.816 85.8731 190.202C86.145 190.292 86.462 190.393 86.8017 190.517C86.9829 189.05 86.9943 187.567 86.8357 186.097C88.0949 187.511 89.1367 189.104 89.9273 190.822Z" fill="#2F2E41"/>
<path d="M108.658 186.469C108.633 187.098 108.557 187.724 108.432 188.341C108.422 188.421 108.407 188.5 108.386 188.578C107.593 192.085 103.301 184.789 99.9834 187.236C97.4241 189.119 96.0085 189.514 93.1887 190.619C93.0868 190.337 92.1808 190.89 92.0563 190.619C92.0223 190.551 92.0903 189.559 92.0563 189.491C94.8081 188.397 95.2611 187.913 97.7185 186.108C100.833 183.819 100.391 185.962 101.116 182.726C101.954 178.993 106.891 180.594 104.355 178.824L104.649 178.418C106.45 179.657 107.779 181.464 108.42 183.549C108.419 183.555 108.42 183.561 108.422 183.567C108.424 183.573 108.427 183.578 108.432 183.583C108.621 184.533 108.697 185.502 108.658 186.469Z" fill="#57AE09"/>
<path d="M332.179 440.972C332.179 439.058 329.94 437.507 327.177 437.507C324.415 437.507 322.175 439.058 322.175 440.972C322.175 442.885 324.415 444.436 327.177 444.436C329.94 444.436 332.179 442.885 332.179 440.972Z" fill="#F2F2F2"/>
<path d="M295.426 452.232C298.188 452.232 300.427 450.681 300.427 448.767C300.427 446.854 298.188 445.302 295.426 445.302C292.663 445.302 290.424 446.854 290.424 448.767C290.424 450.681 292.663 452.232 295.426 452.232Z" fill="#F2F2F2"/>
<path d="M339.791 469.123C342.553 469.123 344.793 467.572 344.793 465.658C344.793 463.745 342.553 462.193 339.791 462.193C337.028 462.193 334.789 463.745 334.789 465.658C334.789 467.572 337.028 469.123 339.791 469.123Z" fill="#F2F2F2"/>
<path d="M352.953 477.091C352.709 477.115 352.462 477.093 352.225 477.026C351.691 476.777 351.235 476.39 350.903 475.905C350.571 475.42 350.377 474.855 350.34 474.269C350.196 473.657 350.241 473.017 350.471 472.432C350.701 471.847 351.104 471.345 351.627 470.994C351.77 470.922 351.924 470.873 352.082 470.852C353.291 470.684 354.461 471.952 354.695 473.674C354.929 475.395 354.149 476.922 352.953 477.091Z" fill="#F2F2F2"/>
<path d="M317.724 460.454C316.521 460.619 315.739 462.149 315.977 463.871C316.215 465.594 317.384 466.856 318.587 466.691C319.79 466.526 320.572 464.996 320.334 463.274C320.096 461.552 318.927 460.289 317.724 460.454Z" fill="#F2F2F2"/>
<path d="M334.768 453.281C334.53 451.558 333.361 450.296 332.158 450.461C330.955 450.626 330.173 452.156 330.411 453.878C330.649 455.601 331.818 456.863 333.021 456.698C334.224 456.533 335.006 455.003 334.768 453.281Z" fill="#F2F2F2"/>
<path d="M309.265 445.535C310.468 445.37 311.25 443.84 311.012 442.118C310.773 440.395 309.605 439.133 308.402 439.298C307.198 439.463 306.416 440.993 306.655 442.715C306.893 444.437 308.061 445.7 309.265 445.535Z" fill="#F2F2F2"/>
<path d="M313.529 471.54C313.519 470.227 311.975 469.175 310.08 469.189C308.185 469.204 306.657 470.28 306.667 471.592C306.677 472.905 308.221 473.957 310.116 473.943C312.011 473.929 313.539 472.853 313.529 471.54Z" fill="#F2F2F2"/>
<path d="M288.376 479.458C290.271 479.443 291.799 478.367 291.789 477.054C291.779 475.742 290.235 474.689 288.34 474.704C286.445 474.718 284.917 475.794 284.927 477.107C284.937 478.42 286.481 479.472 288.376 479.458Z" fill="#F2F2F2"/>
<path d="M318.9 490.812C320.795 490.797 322.323 489.721 322.313 488.409C322.303 487.096 320.758 486.044 318.863 486.058C316.968 486.073 315.44 487.148 315.45 488.461C315.46 489.774 317.005 490.826 318.9 490.812Z" fill="#F2F2F2"/>
<path d="M327.971 496.208C327.804 496.226 327.634 496.212 327.472 496.168C327.104 496 326.789 495.737 326.559 495.406C326.329 495.075 326.192 494.688 326.164 494.286C326.061 493.868 326.089 493.428 326.244 493.025C326.399 492.623 326.673 492.277 327.03 492.033C327.127 491.983 327.232 491.949 327.341 491.933C328.169 491.811 328.979 492.675 329.148 493.855C329.318 495.035 328.791 496.087 327.971 496.208Z" fill="#F2F2F2"/>
<path d="M303.717 484.981C302.892 485.1 302.363 486.154 302.536 487.334C302.709 488.514 303.517 489.374 304.341 489.255C305.166 489.135 305.694 488.081 305.522 486.901C305.349 485.721 304.541 484.861 303.717 484.981Z" fill="#F2F2F2"/>
<path d="M315.371 479.97C315.198 478.79 314.39 477.93 313.565 478.05C312.741 478.169 312.212 479.223 312.385 480.403C312.557 481.583 313.366 482.443 314.19 482.324C315.015 482.204 315.543 481.151 315.371 479.97Z" fill="#F2F2F2"/>
<path d="M297.834 474.791C298.659 474.671 299.187 473.617 299.015 472.437C298.842 471.257 298.034 470.397 297.209 470.517C296.385 470.636 295.856 471.69 296.029 472.87C296.202 474.05 297.01 474.91 297.834 474.791Z" fill="#F2F2F2"/>
<path d="M265.756 466.787C265.741 464.873 263.49 463.339 260.727 463.36C257.965 463.381 255.737 464.95 255.752 466.863C255.767 468.777 258.018 470.311 260.781 470.29C263.543 470.268 265.771 468.7 265.756 466.787Z" fill="#F2F2F2"/>
<path d="M229.09 478.328C231.853 478.307 234.08 476.739 234.065 474.825C234.051 472.912 231.799 471.378 229.037 471.399C226.274 471.42 224.047 472.988 224.062 474.902C224.077 476.815 226.328 478.349 229.09 478.328Z" fill="#F2F2F2"/>
<path d="M273.584 494.879C276.347 494.858 278.574 493.29 278.56 491.376C278.545 489.463 276.293 487.929 273.531 487.95C270.769 487.971 268.541 489.539 268.556 491.453C268.571 493.366 270.822 494.9 273.584 494.879Z" fill="#F2F2F2"/>
<path d="M286.808 502.746C286.564 502.772 286.317 502.752 286.08 502.687C285.544 502.442 285.084 502.058 284.749 501.576C284.414 501.093 284.215 500.529 284.173 499.944C284.024 499.334 284.065 498.693 284.29 498.106C284.515 497.519 284.915 497.015 285.435 496.659C285.577 496.586 285.731 496.537 285.889 496.514C287.097 496.336 288.276 497.596 288.524 499.315C288.771 501.035 288.003 502.568 286.808 502.746Z" fill="#F2F2F2"/>
<path d="M251.452 486.379C250.25 486.554 249.48 488.09 249.731 489.81C249.983 491.53 251.161 492.784 252.363 492.609C253.565 492.435 254.335 490.899 254.083 489.179C253.832 487.458 252.654 486.205 251.452 486.379Z" fill="#F2F2F2"/>
<path d="M268.44 479.076C268.188 477.355 267.01 476.102 265.808 476.276C264.606 476.451 263.836 477.986 264.088 479.707C264.339 481.427 265.517 482.68 266.719 482.506C267.921 482.332 268.691 480.796 268.44 479.076Z" fill="#F2F2F2"/>
<path d="M242.877 471.525C244.079 471.351 244.85 469.815 244.598 468.095C244.346 466.374 243.168 465.121 241.966 465.295C240.764 465.469 239.994 467.005 240.246 468.726C240.497 470.446 241.675 471.699 242.877 471.525Z" fill="#F2F2F2"/>
<path d="M296.679 458.846C296.679 472.786 263.553 447.888 235.264 467.483C200.742 491.396 171.881 474.333 171.885 458.846C171.889 444.906 200.802 417.002 235.263 417.002C269.724 417.002 296.679 444.906 296.679 458.846Z" fill="#713E00"/>
<path d="M266.462 442.925C266.462 449.895 252.494 449.685 235.263 449.685C218.033 449.685 204.065 449.895 204.065 442.925C204.065 435.955 218.033 424.444 235.263 424.444C252.494 424.444 266.462 435.955 266.462 442.925Z" fill="#4D2B01"/>
<path d="M20.5399 489.566L20.4957 499.349L59.2135 504.177L59.2792 489.739L20.5399 489.566Z" fill="#FFB6B6"/>
<path d="M25.2414 489.581L25.1041 487.032L0.288786 484.863L0.249574 492.198L7.20374 493.536L0.229938 496.857L0.141666 516.302C0.136599 517.235 0.431369 518.145 0.982841 518.899C1.53431 519.653 2.31357 520.212 3.20671 520.493C4.09985 520.775 5.06002 520.765 5.94683 520.464C6.83364 520.163 7.60057 519.588 8.13553 518.822L11.3625 514.222L18.9738 503.342L26.0065 503.371L25.2414 489.581Z" fill="#2F2E41"/>
<path d="M192.132 473.632C185.658 490.479 180.185 503.518 177.939 505.745C175.448 508.225 158.577 509.261 137.724 509.544C115.714 509.837 89.2708 509.3 70.5858 508.792H70.5759C56.4616 508.401 46.7709 508.02 46.7709 508.02L46.8494 487.09C46.8494 487.09 47.3202 486.963 48.1833 486.7C49.7821 486.241 52.7442 485.381 56.6284 484.238C68.83 480.644 90.0555 474.325 106.073 469.168C111.32 467.469 116.018 465.906 119.647 464.598C123.806 463.113 126.572 461.961 127.19 461.345C130.849 457.79 132.467 461.345 134.782 464.891C137.097 468.446 137.813 464.891 140.844 462.283C143.874 459.675 150.711 463.26 150.711 463.26C150.711 463.26 150.77 460.896 150.868 457.136C151.015 451.579 151.231 442.925 151.437 434.272C151.427 434.262 151.427 434.262 151.437 434.262C151.446 433.881 151.456 433.491 151.466 433.11C156.174 437.183 161.206 440.913 166.218 445.582C169.484 448.619 174.467 453.649 178.017 457.243C178.733 457.976 179.655 458.943 180.381 459.705C184.663 464.03 188.592 468.687 192.132 473.632Z" fill="#2F2E41"/>
<path d="M32.4826 517.665L33.232 527.419L72.2155 529.117L71.1082 514.721L32.4826 517.665Z" fill="#FFB6B6"/>
<path d="M38.5907 527.651L37.1783 517.308L36.8252 514.769L11.9118 514.603L12.4709 521.918L19.5035 522.69L12.8338 526.567L14.3247 545.964C14.3964 546.893 14.7647 547.775 15.3756 548.482C15.9866 549.188 16.8082 549.681 17.7207 549.89C18.6331 550.098 19.5885 550.01 20.4475 549.64C21.3064 549.269 22.0239 548.635 22.4951 547.829L32.0485 531.519L39.0517 530.991L38.5907 527.651Z" fill="#2F2E41"/>
<path d="M200.43 514.095C192.563 526.342 95.6659 538.316 59.2865 531.519C59.3551 530.542 59.463 529.556 59.5905 528.569C60.13 524.233 61.1403 519.809 61.9838 515.414C62.3369 513.568 62.6704 511.722 62.9254 509.886C64.1515 509.69 62.8077 509.817 64.4163 509.563C66.4551 509.203 68.5109 508.945 70.5759 508.792H70.5858C71.2135 508.743 71.9197 508.694 72.7534 508.636C91.2816 507.376 114.871 512.689 131.427 503.655C136.106 501.096 136.4 500.373 137.087 499.562C141.069 494.816 141.452 498.742 144.885 500.441C148.318 502.141 147.69 499.162 148.651 496.564C149.612 493.966 153.859 494.308 156.321 493.927C154.036 491.817 155.537 491.446 151.76 489.639C146.189 486.963 136.959 483.018 130.427 480.39C130.406 480.376 130.383 480.367 130.358 480.361C127.602 479.306 123.718 477.636 121.236 476.591C119.314 475.78 115.96 474.257 114.9 473.856C112.566 472.968 108.535 481.367 106.073 479.912C105.2 479.384 104.533 478.974 104.199 478.779C100.05 476.308 103.307 477.597 102.875 474.599C102.816 474.228 102.983 473.27 102.934 472.948C102.826 472.186 103.081 470.917 102.708 470.458C102.326 470.008 101.061 472.274 100.266 472.606C99.913 472.762 98.5202 473.847 97.3824 473.729C92.4782 473.192 89.1433 468.426 87.4465 463.65C73.1654 457.487 63.7297 443.091 61.4836 429.652C59.5807 418.304 62.9647 409.24 65.9562 401.769C68.6437 395.069 69.4774 395.996 72.4592 391.211C72.3709 390.351 72.3709 390.576 72.3709 390.635C72.3709 390.547 72.3513 390.195 72.2925 389.043C72.1355 385.956 71.7628 376.844 71.5862 372.595C72.8171 371.235 74.2029 370.023 75.7156 368.982C80.355 365.544 87.2994 363.571 92.3704 362.604C98.1475 361.501 105.631 362.292 109.81 362.897C116.323 363.835 118.48 365.095 123.914 366.364C123.924 376.668 126.082 373.797 125.023 387.158C123.953 400.518 161.206 440.913 166.218 445.582C169.484 448.619 174.467 453.649 178.017 457.243C178.733 457.976 179.655 458.943 180.381 459.705C184.54 464.07 192.985 474.892 193.387 475.536C193.897 476.347 194.113 476.982 194.525 477.763C194.535 477.783 208.286 501.848 200.43 514.095Z" fill="#2F2E41"/>
<path d="M328.243 404.321L326.236 439.381C326.235 440.271 326.41 441.152 326.752 441.974C327.093 442.797 327.594 443.544 328.226 444.173C328.858 444.802 329.609 445.301 330.434 445.641C331.26 445.981 332.145 446.156 333.039 446.155C352.324 455.94 358.345 456.214 375.624 446.155C376.518 446.156 377.403 445.981 378.229 445.641C379.054 445.301 379.805 444.802 380.437 444.173C381.069 443.544 381.57 442.797 381.911 441.974C382.253 441.152 382.428 440.271 382.427 439.381L380.42 403.472L382.427 393.98C382.428 393.09 382.253 392.209 381.911 391.386C381.57 390.564 381.068 389.817 380.436 389.188C379.805 388.558 379.054 388.059 378.228 387.719C377.403 387.379 376.518 387.205 375.624 387.206H333.039C332.145 387.205 331.26 387.379 330.434 387.719C329.608 388.059 328.858 388.558 328.226 389.188C327.594 389.817 327.093 390.564 326.752 391.386C326.41 392.209 326.235 393.09 326.236 393.98L328.243 404.321Z" fill="#E6E6E6"/>
<path d="M295.13 384.208L292.894 388.66L331.253 411.185L328.243 431.168L290.447 393.533L288.106 398.196L287.364 396.719C286.702 395.401 286.39 393.937 286.456 392.465C286.523 390.993 286.966 389.562 287.744 388.308C288.522 387.055 289.609 386.02 290.902 385.302C292.194 384.585 293.65 384.208 295.13 384.208Z" fill="#E6E6E6"/>
<path d="M339.28 387.705C339.28 393.5 346.465 398.196 355.335 398.196C364.205 398.196 371.39 393.5 371.39 387.705C371.39 387.535 371.379 387.375 371.369 387.206H339.3C339.29 387.375 339.28 387.535 339.28 387.705Z" fill="#F2F2F2"/>
<path d="M359.85 371.105C359.849 369.943 359.385 368.829 358.56 368.008C357.735 367.186 356.616 366.724 355.449 366.723H355.22C354.053 366.724 352.935 367.186 352.11 368.008C351.285 368.829 350.821 369.943 350.819 371.105V401.693H359.85V371.105Z" fill="#E6E6E6"/>
<path d="M181.593 424.724C181.028 424.076 180.335 423.55 179.556 423.181C178.777 422.812 177.931 422.607 177.069 422.579C177.069 422.579 145.918 418.851 141.316 415.702C139.758 415.652 138.238 416.184 137.053 417.192C135.869 418.2 135.105 419.613 134.911 421.153L105.213 426.726C103.809 426.992 102.57 427.802 101.766 428.978C100.962 430.154 100.659 431.599 100.923 432.997C101.188 434.394 101.998 435.631 103.177 436.434C104.356 437.238 105.806 437.543 107.211 437.283L136.757 431.739C137.317 433.042 138.306 434.117 139.562 434.785C140.818 435.453 142.266 435.674 143.665 435.412L176.935 429.168C181.68 428.278 184.756 428.357 181.593 424.724Z" fill="#E6E6E6"/>
<path d="M94.3845 375.754L87.2054 306.523C86.9099 303.589 87.7848 300.657 89.6413 298.359C91.4977 296.062 94.1868 294.584 97.1283 294.243C98.65 294.067 100.192 294.201 101.66 294.638C103.128 295.074 104.491 295.804 105.666 296.782C106.842 297.76 107.805 298.967 108.497 300.328C109.189 301.689 109.595 303.176 109.691 304.698L114.934 376.84L119.976 420.543C121.916 421.109 123.634 422.257 124.896 423.829C126.158 425.402 126.903 427.323 127.03 429.332C127.158 431.341 126.661 433.341 125.607 435.059C124.553 436.777 122.994 438.13 121.141 438.935C119.288 439.74 117.231 439.957 115.25 439.558C113.269 439.158 111.459 438.161 110.067 436.701C108.674 435.242 107.767 433.391 107.468 431.4C107.169 429.409 107.492 427.375 108.395 425.573L94.3845 375.754Z" fill="#FFB6B6"/>
<path d="M82.2796 321.287C81.7048 320.841 81.293 320.22 81.1072 319.518C80.9214 318.817 80.972 318.074 81.2512 317.404C81.58 316.571 81.6392 315.656 81.4207 314.788C81.3765 314.62 81.3213 314.456 81.2555 314.296C80.8353 313.34 80.6531 312.297 80.7243 311.257C80.7955 310.216 81.118 309.207 81.6644 308.317C83.5048 305.413 84.0352 301.313 84.0238 297.722C84.0113 293.793 83.7849 289.805 84.7174 285.987C86.0628 280.479 90.3193 275.169 97.2709 276.528C100.219 277.151 102.86 278.768 104.751 281.104C108.769 285.938 109.65 292.305 110.435 298.404L111.309 295.838C112.049 302.514 114.136 308.973 117.444 314.827C115.923 314.736 115.137 316.858 115.806 318.222C116.475 319.586 117.924 320.349 119.192 321.192C120.789 322.255 122.387 323.936 121.298 326.024C121.023 326.516 120.649 326.947 120.199 327.288C119.75 327.63 119.234 327.875 118.684 328.008C108.356 330.751 97.5704 331.338 87.0039 329.731C84.6572 329.373 82.1141 328.781 80.6686 326.906C79.2232 325.031 79.9219 321.564 82.2796 321.287Z" fill="#57AE09"/>
<path d="M109.857 436.57C107.937 433.395 107.245 431.271 107.895 426.315C102.641 427.206 100.825 428.48 101.029 433.152C102.883 438.568 105.093 438.604 109.857 436.57Z" fill="#C2BFBF"/>
<path d="M377.136 387.249H331.527C327.835 388.017 326.629 389.62 325.642 394.085L328.094 400.922L327.113 408.735L293.274 388.714L294.255 383.83C289.538 385.994 287.685 387.549 286.408 391.155C285.941 394.014 286.275 395.622 288.37 398.48L290.822 394.085L327.113 430.222V443.895C337.334 450.625 339.864 454.15 356.539 454.15C373.213 454.15 382.041 443.895 382.041 443.895C382.041 443.895 382.302 418.46 380.569 400.922C382.502 397.091 382.918 394.947 382.041 391.155C381.521 388.928 380.406 388.091 377.136 387.249Z" fill="#D4D1D1"/>
<path d="M113.29 208.03L125.06 210.96C135.446 199.894 143.077 198.404 159.39 202.658C158.056 197.812 156.336 195.867 152.033 193.38L129.964 184.102C118.917 190.199 115.336 195.443 113.29 208.03Z" fill="#2F2E41" stroke="#2F2E41"/>
<path d="M104.463 178.242C95.3697 177.689 91.7663 179.773 88.769 188.985L92.6924 196.798L112.309 188.497C108.48 181.474 106.107 176.643 104.463 178.242Z" fill="#2F2E41" stroke="#2F2E41"/>
<path d="M348.673 387.737V370.157C349.602 368.251 349.759 366.25 353.557 366.25C357.355 366.25 358.22 367.768 358.44 370.157V387.737H348.673Z" fill="#CDC9C9"/>
<path d="M126.543 433.593C127.238 428.859 124.04 422.587 124.04 422.587L134.554 420.586C134.965 417.246 136.329 416.019 140.561 415.084C155.689 419.865 164.254 421.153 179.612 422.087L183.617 427.59L142.063 435.594C139.074 435.519 137.475 435.291 136.056 431.592L126.543 433.593Z" fill="#C2BFBF"/>
<path d="M248.565 128.993C284.435 128.993 313.513 100.117 313.513 64.4964C313.513 28.876 284.435 0 248.565 0C212.695 0 183.617 28.876 183.617 64.4964C183.617 100.117 212.695 128.993 248.565 128.993Z" fill="#57AE09"/>
<path d="M248.744 64.4976H248.921L252.134 247.353H245.354L248.744 64.4976Z" fill="#3F3D56"/>
<path d="M260.57 164.098L259.074 161.276L248.338 166.889L249.834 169.711L260.57 164.098Z" fill="#3F3D56"/>
<path d="M374.879 352.929C374.879 352.929 375.557 337.947 389.451 339.689Z" fill="#3F3D56"/>
<path d="M370.954 338.672C374.794 338.672 377.907 335.388 377.907 331.336C377.907 327.284 374.794 324 370.954 324C367.113 324 364 327.284 364 331.336C364 335.388 367.113 338.672 370.954 338.672Z" fill="#965AF7"/>
<path d="M371.785 343.689H369.822V358.185H371.785V343.689Z" fill="#3F3D56"/>
<path d="M414.206 362.114C414.206 362.114 414.744 350.215 425.779 351.598Z" fill="#3F3D56"/>
<path d="M411.088 350.79C414.138 350.79 416.611 348.182 416.611 344.964C416.611 341.746 414.138 339.137 411.088 339.137C408.038 339.137 405.565 341.746 405.565 344.964C405.565 348.182 408.038 350.79 411.088 350.79Z" fill="#FF4286"/>
<path d="M411.748 354.775H410.189V366.288H411.748V354.775Z" fill="#3F3D56"/>
<path d="M402.879 337.929C402.879 337.929 403.557 322.947 417.451 324.689Z" fill="#3F3D56"/>
<path d="M398.954 323.672C402.794 323.672 405.907 320.388 405.907 316.336C405.907 312.284 402.794 309 398.954 309C395.113 309 392 312.284 392 316.336C392 320.388 395.113 323.672 398.954 323.672Z" fill="#965AF7"/>
<path d="M399.785 328.689H397.822V343.185H399.785V328.689Z" fill="#3F3D56"/>
</svg>
