<svg width="468" height="550" viewBox="0 0 468 550" fill="none" xmlns="http://www.w3.org/2000/svg">
<circle cx="225" cy="264.658" r="225" fill="#FFF7E1"/>
<path d="M238.206 262.071H177.358V264.142H186.847V283.814H188.811V264.142H225.772V283.814H227.735V264.142H238.206V262.071Z" fill="#3F3D56"/>
<path d="M260.779 211.337H245.076V227.903H252.355V283.723H254.319V227.903H260.779V211.337Z" fill="#3F3D56"/>
<path d="M238.326 255.875H177.478V257.946H238.326V255.875Z" fill="#3F3D56"/>
<path d="M238.326 250.699H177.478V252.769H238.326V250.699Z" fill="#3F3D56"/>
<path d="M238.326 245.522H177.478V247.593H238.326V245.522Z" fill="#3F3D56"/>
<path d="M394.253 289.782H392.29C392.29 191.585 316.564 111.696 223.485 111.696C130.405 111.696 54.6797 191.585 54.6797 289.782H52.7168C52.7168 190.443 129.323 109.625 223.485 109.625C317.647 109.625 394.253 190.443 394.253 289.782Z" fill="#3F3D56"/>
<path d="M147.017 255.663C158.309 255.663 167.462 246.006 167.462 234.093C167.462 222.181 158.309 212.524 147.017 212.524C135.725 212.524 126.572 222.181 126.572 234.093C126.572 246.006 135.725 255.663 147.017 255.663Z" fill="#57AE09"/>
<path opacity="0.2" d="M162.226 219.687C164.133 224.393 164.391 229.661 162.955 234.55C161.52 239.439 158.483 243.63 154.387 246.375C150.292 249.119 145.405 250.237 140.6 249.53C135.795 248.823 131.385 246.337 128.158 242.515C129.323 245.391 131.066 247.964 133.268 250.058C135.469 252.152 138.076 253.716 140.907 254.641C143.738 255.567 146.726 255.832 149.664 255.418C152.602 255.005 155.42 253.922 157.922 252.245C160.424 250.569 162.55 248.339 164.154 245.709C165.758 243.079 166.801 240.113 167.21 237.016C167.62 233.919 167.386 230.765 166.525 227.773C165.664 224.781 164.197 222.021 162.226 219.687Z" fill="black"/>
<path d="M147.073 234.094H147.129L148.141 295.246H146.006L147.073 234.094Z" fill="#3F3D56"/>
<path d="M150.796 267.403L150.325 266.459L146.946 268.336L147.417 269.28L150.796 267.403Z" fill="#3F3D56"/>
<path d="M108.445 282.139C119.737 282.139 128.89 272.482 128.89 260.569C128.89 248.657 119.737 239 108.445 239C97.1537 239 88 248.657 88 260.569C88 272.482 97.1537 282.139 108.445 282.139Z" fill="#57AE09"/>
<path opacity="0.2" d="M123.654 246.163C125.561 250.869 125.82 256.137 124.384 261.026C122.948 265.915 119.911 270.106 115.815 272.851C111.72 275.595 106.833 276.713 102.028 276.006C97.2233 275.299 92.8132 272.813 89.5859 268.991C90.7509 271.866 92.4945 274.44 94.6959 276.534C96.8974 278.628 99.504 280.192 102.335 281.117C105.166 282.043 108.155 282.308 111.093 281.894C114.031 281.481 116.848 280.398 119.35 278.721C121.852 277.045 123.979 274.814 125.583 272.185C127.186 269.555 128.229 266.589 128.638 263.492C129.048 260.395 128.814 257.241 127.953 254.249C127.093 251.257 125.626 248.497 123.654 246.163Z" fill="black"/>
<path d="M108.502 260.57H108.557L109.569 321.722H107.435L108.502 260.57Z" fill="#3F3D56"/>
<path d="M112.224 293.879L111.753 292.935L108.374 294.812L108.845 295.756L112.224 293.879Z" fill="#3F3D56"/>
<path d="M335.942 219.794C364.849 219.794 388.283 195.072 388.283 164.575C388.283 134.078 364.849 109.355 335.942 109.355C307.034 109.355 283.6 134.078 283.6 164.575C283.6 195.072 307.034 219.794 335.942 219.794Z" fill="#57AE09"/>
<path opacity="0.2" d="M374.877 127.692C379.759 139.741 380.421 153.228 376.745 165.745C373.069 178.261 365.295 188.99 354.81 196.016C344.326 203.041 331.815 205.905 319.514 204.095C307.213 202.285 295.922 195.919 287.66 186.135C290.643 193.496 295.106 200.085 300.742 205.446C306.378 210.806 313.051 214.81 320.3 217.179C327.548 219.549 335.198 220.228 342.719 219.169C350.24 218.109 357.454 215.338 363.859 211.046C370.264 206.754 375.709 201.044 379.815 194.311C383.921 187.579 386.59 179.986 387.638 172.057C388.686 164.128 388.088 156.054 385.884 148.393C383.68 140.733 379.925 133.669 374.877 127.692Z" fill="black"/>
<path d="M336.086 164.574H336.229L338.818 321.131H333.353L336.086 164.574Z" fill="#3F3D56"/>
<path d="M345.616 249.85L344.41 247.434L335.758 252.239L336.964 254.656L345.616 249.85Z" fill="#3F3D56"/>
<path d="M131.138 441.693C131.138 441.693 131.815 426.711 145.709 428.452Z" fill="#3F3D56"/>
<path d="M127.211 427.436C131.052 427.436 134.165 424.151 134.165 420.1C134.165 416.048 131.052 412.764 127.211 412.764C123.371 412.764 120.258 416.048 120.258 420.1C120.258 424.151 123.371 427.436 127.211 427.436Z" fill="#FC5EFF"/>
<path d="M128.043 432.453H126.08V446.948H128.043V432.453Z" fill="#3F3D56"/>
<path d="M142.822 391.675C142.822 391.675 143.36 379.776 154.395 381.159Z" fill="#3F3D56"/>
<path d="M139.704 380.352C142.754 380.352 145.227 377.743 145.227 374.525C145.227 371.307 142.754 368.698 139.704 368.698C136.654 368.698 134.181 371.307 134.181 374.525C134.181 377.743 136.654 380.352 139.704 380.352Z" fill="#FC5EFF"/>
<path d="M140.365 384.337H138.806V395.85H140.365V384.337Z" fill="#3F3D56"/>
<path d="M388.487 334.558C388.487 334.558 389.026 322.659 400.061 324.042Z" fill="#3F3D56"/>
<path d="M385.369 323.234C388.419 323.234 390.892 320.626 390.892 317.408C390.892 314.19 388.419 311.581 385.369 311.581C382.319 311.581 379.846 314.19 379.846 317.408C379.846 320.626 382.319 323.234 385.369 323.234Z" fill="#57AE09"/>
<path d="M386.029 327.219H384.47V338.732H386.029V327.219Z" fill="#3F3D56"/>
<path d="M182.388 402.894C182.388 402.894 182.926 390.994 193.961 392.377Z" fill="#3F3D56"/>
<path d="M179.269 391.57C182.32 391.57 184.792 388.961 184.792 385.743C184.792 382.526 182.32 379.917 179.269 379.917C176.219 379.917 173.747 382.526 173.747 385.743C173.747 388.961 176.219 391.57 179.269 391.57Z" fill="#57AE09"/>
<path d="M179.93 395.555H178.371V407.068H179.93V395.555Z" fill="#3F3D56"/>
<path d="M158.833 425.672C158.833 425.672 159.372 413.773 170.407 415.156Z" fill="#3F3D56"/>
<path d="M155.715 414.348C158.766 414.348 161.238 411.74 161.238 408.522C161.238 405.304 158.766 402.695 155.715 402.695C152.665 402.695 150.192 405.304 150.192 408.522C150.192 411.74 152.665 414.348 155.715 414.348Z" fill="#57AE09"/>
<path d="M156.376 418.333H154.817V429.846H156.376V418.333Z" fill="#3F3D56"/>
<path d="M421.855 354.231C421.855 354.231 422.394 342.331 433.429 343.714Z" fill="#3F3D56"/>
<path d="M418.738 342.907C421.788 342.907 424.261 340.298 424.261 337.08C424.261 333.862 421.788 331.254 418.738 331.254C415.688 331.254 413.215 333.862 413.215 337.08C413.215 340.298 415.688 342.907 418.738 342.907Z" fill="#FC5EFF"/>
<path d="M419.398 346.892H417.839V358.405H419.398V346.892Z" fill="#3F3D56"/>
<path d="M103.874 380.115C103.874 380.115 104.412 368.216 115.447 369.599Z" fill="#3F3D56"/>
<path d="M100.755 368.791C103.806 368.791 106.278 366.183 106.278 362.965C106.278 359.747 103.806 357.138 100.755 357.138C97.7051 357.138 95.2324 359.747 95.2324 362.965C95.2324 366.183 97.7051 368.791 100.755 368.791Z" fill="#57AE09"/>
<path d="M101.416 372.777H99.8569V384.29H101.416V372.777Z" fill="#3F3D56"/>
<path d="M359.044 321.098C359.044 321.098 359.583 309.199 370.618 310.582Z" fill="#3F3D56"/>
<path d="M355.926 309.774C358.976 309.774 361.449 307.166 361.449 303.948C361.449 300.73 358.976 298.121 355.926 298.121C352.876 298.121 350.403 300.73 350.403 303.948C350.403 307.166 352.876 309.774 355.926 309.774Z" fill="#57AE09"/>
<path d="M356.587 313.759H355.028V325.272H356.587V313.759Z" fill="#3F3D56"/>
<path d="M421.529 322.045C421.529 322.045 422.207 307.064 436.101 308.805Z" fill="#3F3D56"/>
<path d="M417.604 307.788C421.444 307.788 424.557 304.504 424.557 300.452C424.557 296.401 421.444 293.116 417.604 293.116C413.763 293.116 410.65 296.401 410.65 300.452C410.65 304.504 413.763 307.788 417.604 307.788Z" fill="#57AE09"/>
<path d="M418.435 312.806H416.472V327.301H418.435V312.806Z" fill="#3F3D56"/>
<path d="M162.027 528.173C162.027 528.173 245.028 480.313 242.083 392.305C236.686 367.973 165.009 345.176 165.009 345.176C165.009 345.176 76.6802 332.751 124.77 302.725C172.86 272.699 304.371 279.946 304.371 279.946C304.371 279.946 168.934 302.725 228.801 315.149C276.891 318.256 342.527 339.322 342.527 339.322C342.527 339.322 391.493 351.248 409.158 419.583C426.824 487.919 312.195 548.632 312.195 548.632L162.027 528.173Z" fill="#DAD6D6"/>
<path d="M238.213 550L237.055 548.293C238.691 547.059 240.302 545.833 241.888 544.613L243.059 546.309C241.466 547.532 239.851 548.762 238.213 550Z" fill="white"/>
<path d="M252.643 538.801L251.442 537.129C254.656 534.562 257.821 531.979 260.85 529.452L262.084 531.098C259.044 533.633 255.867 536.226 252.643 538.801ZM271.362 523.169L270.092 521.555C273.203 518.828 276.244 516.088 279.133 513.412L280.446 514.988C277.544 517.678 274.487 520.431 271.362 523.169ZM289.295 506.52L287.933 504.989C290.902 502.052 293.764 499.111 296.441 496.247L297.857 497.721C295.163 500.603 292.281 503.564 289.295 506.52ZM306.061 488.536L304.581 487.135C307.308 483.93 309.887 480.72 312.247 477.595L313.803 478.902C311.419 482.059 308.814 485.301 306.061 488.536ZM320.931 468.741L319.288 467.559C321.601 463.984 323.687 460.416 325.488 456.953L327.232 457.963C325.4 461.484 323.28 465.111 320.931 468.741ZM332.368 446.484L330.517 445.718C331.959 441.878 333.089 437.915 333.894 433.873L335.842 434.295C335.015 438.455 333.853 442.533 332.368 446.484ZM335.023 421.623C334.964 417.545 334.427 413.489 333.424 409.55L335.345 409.003C336.39 413.11 336.95 417.337 337.012 421.588L335.023 421.623ZM329.073 398.224C327.184 394.625 324.967 391.229 322.453 388.084L323.978 386.738C326.575 389.987 328.866 393.497 330.817 397.215L329.073 398.224ZM314.235 379.229C311.279 376.482 308.183 373.909 304.96 371.52L306.108 369.807C309.391 372.24 312.544 374.861 315.554 377.659L314.235 379.229ZM294.993 364.767C291.74 362.749 288.23 360.736 284.563 358.783L285.459 356.91C289.164 358.883 292.711 360.917 296.001 362.957L294.993 364.767ZM273.813 353.421C270.351 351.798 266.664 350.164 262.853 348.565L263.589 346.616C267.423 348.225 271.135 349.869 274.621 351.503L273.813 353.421ZM251.701 344.105C248.157 342.749 244.368 341.358 240.442 339.97L241.073 337.98C245.015 339.374 248.819 340.771 252.378 342.132L251.701 344.105ZM229.094 336.082C225.628 334.929 221.897 333.715 217.686 332.369L218.263 330.361C222.481 331.709 226.22 332.926 229.693 334.08L229.094 336.082ZM206.242 328.745C202.218 327.476 198.382 326.263 194.791 325.096L195.376 323.09C198.963 324.257 202.793 325.468 206.812 326.735L206.242 328.745ZM183.385 321.205C179.558 319.872 175.817 318.283 172.182 316.447L173.077 314.572C176.632 316.367 180.292 317.92 184.035 319.221L183.385 321.205ZM168.365 307.449L166.947 305.978C168.76 304.035 172.347 302.133 177.911 300.164L178.544 302.153C173.356 303.988 169.931 305.771 168.365 307.449ZM189.922 298.735L189.441 296.699C192.881 295.795 196.8 294.849 201.089 293.888L201.501 295.941C197.236 296.896 193.34 297.837 189.922 298.735ZM213.163 293.47L212.79 291.409C216.455 290.67 220.402 289.905 224.522 289.134L224.87 291.2C220.758 291.969 216.82 292.732 213.163 293.47ZM236.602 289.069L236.274 286.999C240.022 286.336 243.944 285.658 248.04 284.965L248.355 287.037C244.262 287.729 240.345 288.407 236.602 289.069Z" fill="white"/>
<path d="M260.348 285.045L260.043 282.971C261.977 282.656 263.944 282.337 265.946 282.015L266.245 284.089C264.244 284.411 262.279 284.729 260.348 285.045Z" fill="white"/>
<path d="M304.368 71.9071L313.402 64.2838C306.384 63.4668 303.5 67.5051 302.32 70.7015C296.836 68.2994 290.867 71.4475 290.867 71.4475L308.944 78.3708C308.032 75.8011 306.444 73.5589 304.368 71.9071Z" fill="#3F3D56"/>
<path d="M136.543 130.924L145.578 123.301C138.559 122.484 135.676 126.522 134.495 129.719C129.012 127.317 123.043 130.465 123.043 130.465L141.12 137.388C140.208 134.818 138.62 132.576 136.543 130.924Z" fill="#3F3D56"/>
<path d="M180.708 8.74866L189.743 1.12531C182.724 0.308397 179.84 4.34668 178.66 7.54303C173.177 5.14098 167.208 8.28899 167.208 8.28899L185.284 15.2123C184.372 12.6426 182.785 10.4004 180.708 8.74866Z" fill="#3F3D56"/>
<path d="M278.924 348.178C278.924 348.178 271.098 348.178 270.229 353.224C269.359 358.269 268.055 413.307 268.924 420.186C269.794 427.066 269.794 425.69 269.794 425.69C269.794 425.69 268.061 438.764 271.97 439.336C275.88 439.908 275.88 424.314 275.88 424.314L278.924 368.359V348.178Z" fill="#9E616A"/>
<path d="M312.833 348.178C312.833 348.178 320.659 348.178 321.528 353.224C322.398 358.269 323.702 413.307 322.833 420.186C321.963 427.066 321.963 425.69 321.963 425.69C321.963 425.69 323.697 438.764 319.787 439.336C315.877 439.908 315.877 424.314 315.877 424.314L312.833 368.359V348.178Z" fill="#9E616A"/>
<path d="M277.619 539.894H274.141C273.114 539.894 272.096 540.107 271.147 540.522C270.197 540.937 269.335 541.545 268.608 542.312C267.881 543.078 267.305 543.988 266.912 544.99C266.518 545.991 266.316 547.065 266.316 548.149L287.618 548.149V537.6H277.619V539.894Z" fill="#2F2E41"/>
<path d="M311.094 539.894H314.572C316.648 539.894 318.638 540.763 320.106 542.312C321.573 543.86 322.398 545.96 322.398 548.149L301.095 548.149V537.6H311.094V539.894Z" fill="#2F2E41"/>
<path d="M292.401 337.63C298.643 337.63 303.704 332.291 303.704 325.705C303.704 319.119 298.643 313.78 292.401 313.78C286.158 313.78 281.097 319.119 281.097 325.705C281.097 332.291 286.158 337.63 292.401 337.63Z" fill="#9E616A"/>
<path d="M289.792 332.126C289.792 332.126 288.488 347.261 286.749 348.637C285.01 350.013 305.008 347.72 305.008 347.72C305.008 347.72 298.052 336.712 299.356 333.043C300.661 329.374 289.792 332.126 289.792 332.126Z" fill="#9E616A"/>
<path d="M315.442 348.179C315.442 348.179 291.531 337.63 275.88 348.179C275.88 348.179 271.967 358.727 275.011 364.69C278.054 370.652 282.836 384.87 278.054 394.502C273.272 404.134 278.489 400.006 278.489 400.006C278.489 400.006 272.402 425.69 271.533 445.871C270.663 466.051 274.141 538.518 276.75 538.976C279.358 539.435 287.618 540.352 288.488 538.976C289.357 537.6 295.444 441.743 295.444 441.743C295.444 441.743 298.052 539.894 300.661 539.894C303.269 539.894 310.225 539.894 311.529 537.6C312.833 535.307 323.702 446.788 319.789 428.442C315.877 410.096 313.268 400.923 313.268 400.923C313.268 400.923 318.05 397.713 316.746 395.878C315.442 394.043 308.921 374.321 311.964 371.111C315.007 367.9 315.442 348.179 315.442 348.179Z" fill="#2F2E41"/>
<path d="M299.574 337.781C309.658 337.781 317.833 329.156 317.833 318.518C317.833 307.879 309.658 299.254 299.574 299.254C289.489 299.254 281.314 307.879 281.314 318.518C281.314 329.156 289.489 337.781 299.574 337.781Z" fill="#2F2E41"/>
<path d="M310.976 308.874C307.899 308.111 305.218 306.128 303.49 303.336C301.762 300.544 301.12 297.157 301.695 293.878C301.642 294.076 301.592 294.275 301.547 294.476C300.803 297.826 301.35 301.35 303.068 304.274C304.787 307.198 307.535 309.283 310.709 310.069C313.884 310.856 317.225 310.281 319.997 308.47C322.77 306.66 324.748 303.762 325.496 300.413C325.541 300.211 325.58 300.009 325.615 299.808C324.746 303.014 322.741 305.744 320.016 307.432C317.29 309.12 314.053 309.637 310.976 308.874Z" fill="#2F2E41"/>
<path d="M311.719 311.384C316.654 311.384 320.655 307.164 320.655 301.957C320.655 296.751 316.654 292.531 311.719 292.531C306.784 292.531 302.784 296.751 302.784 301.957C302.784 307.164 306.784 311.384 311.719 311.384Z" fill="#2F2E41"/>
<path d="M424.879 418.929C424.879 418.929 425.557 403.947 439.451 405.689Z" fill="#3F3D56"/>
<path d="M420.954 404.672C424.794 404.672 427.907 401.388 427.907 397.336C427.907 393.284 424.794 390 420.954 390C417.113 390 414 393.284 414 397.336C414 401.388 417.113 404.672 420.954 404.672Z" fill="#57AE09"/>
<path d="M421.785 409.689H419.822V424.185H421.785V409.689Z" fill="#3F3D56"/>
<path d="M453.206 436.114C453.206 436.114 453.744 424.215 464.779 425.598Z" fill="#3F3D56"/>
<path d="M450.088 424.79C453.138 424.79 455.611 422.182 455.611 418.964C455.611 415.746 453.138 413.137 450.088 413.137C447.038 413.137 444.565 415.746 444.565 418.964C444.565 422.182 447.038 424.79 450.088 424.79Z" fill="#FC5EFF"/>
<path d="M450.748 428.775H449.189V440.288H450.748V428.775Z" fill="#3F3D56"/>
<path d="M452.879 403.929C452.879 403.929 453.557 388.947 467.451 390.689Z" fill="#3F3D56"/>
<path d="M448.954 389.672C452.794 389.672 455.907 386.388 455.907 382.336C455.907 378.284 452.794 375 448.954 375C445.113 375 442 378.284 442 382.336C442 386.388 445.113 389.672 448.954 389.672Z" fill="#57AE09"/>
<path d="M449.785 394.689H447.822V409.185H449.785V394.689Z" fill="#3F3D56"/>
</svg>
