<svg width="469" height="550" viewBox="0 0 469 550" fill="none" xmlns="http://www.w3.org/2000/svg">
<ellipse cx="223.822" cy="290.286" rx="222.973" ry="222.973" fill="#EFFFD5"/>
<path d="M71.0611 447.668C62.912 436.881 58.2019 424.818 58.0476 411.065C57.785 410.323 57.8286 409.509 58.1687 408.8C58.5088 408.09 59.1178 407.544 59.8619 407.281L87.6384 397.5C88.3831 397.239 89.2016 397.282 89.9142 397.621C90.6268 397.959 91.1754 398.565 91.4396 399.306L104.453 435.91C104.716 436.651 104.672 437.465 104.332 438.175C103.992 438.884 103.383 439.43 102.639 439.693L74.8623 449.474C74.1176 449.735 73.2992 449.692 72.5866 449.354C71.8739 449.015 71.3253 448.409 71.0611 447.668Z" fill="#57AE09"/>
<path opacity="0.2" d="M77.3321 447.016C76.5874 447.277 75.7689 447.234 75.0563 446.895C74.3437 446.557 73.7951 445.951 73.5309 445.21C65.3817 434.423 60.6717 422.359 60.5173 408.606C60.3474 408.119 60.3099 407.595 60.4085 407.089L59.8619 407.281C59.1178 407.544 58.5089 408.09 58.1687 408.799C57.8286 409.509 57.785 410.323 58.0475 411.064C58.2019 424.818 62.9119 436.881 71.0611 447.668C71.3253 448.409 71.8739 449.015 72.5865 449.353C73.2991 449.692 74.1176 449.735 74.8623 449.474L102.639 439.693C103.132 439.517 103.569 439.216 103.907 438.818C104.245 438.42 104.471 437.94 104.562 437.427L77.3321 447.016Z" fill="black"/>
<path d="M90.3457 419.619L71.7504 426.225C71.4545 426.33 71.1288 426.314 70.8448 426.18C70.5609 426.046 70.3421 425.805 70.2364 425.511C70.1308 425.216 70.1471 424.892 70.2816 424.609C70.4161 424.327 70.658 424.109 70.9539 424.004L89.5492 417.398C89.6957 417.346 89.8511 417.323 90.0065 417.331C90.1618 417.339 90.3142 417.377 90.4548 417.443C90.5954 417.509 90.7215 417.602 90.8259 417.717C90.9302 417.832 91.0109 417.966 91.0632 418.112C91.1155 418.258 91.1384 418.412 91.1307 418.567C91.1229 418.722 91.0846 418.873 91.018 419.013C90.9514 419.153 90.8578 419.279 90.7424 419.383C90.6271 419.486 90.4922 419.567 90.3457 419.619Z" fill="white"/>
<path d="M73.6577 418.682L69.5667 420.135C69.4202 420.187 69.2649 420.21 69.1095 420.203C68.9541 420.195 68.8018 420.157 68.6611 420.091C68.5204 420.025 68.3942 419.932 68.2897 419.817C68.1851 419.703 68.1043 419.569 68.0518 419.423C67.9994 419.277 67.9763 419.123 67.9838 418.968C67.9914 418.813 68.0295 418.662 68.0959 418.522C68.1624 418.382 68.2559 418.256 68.3711 418.152C68.4863 418.048 68.621 417.967 68.7675 417.915L68.7702 417.914L72.8611 416.461C73.1569 416.356 73.4824 416.373 73.7661 416.507C74.0497 416.641 74.2684 416.881 74.3739 417.175C74.4795 417.47 74.4633 417.794 74.329 418.076C74.1947 418.359 73.9532 418.576 73.6577 418.682Z" fill="white"/>
<path d="M93.8475 429.382L75.2523 435.988C74.9565 436.093 74.6307 436.078 74.3466 435.944C74.0625 435.81 73.8434 435.57 73.7374 435.276C73.6314 434.981 73.6473 434.657 73.7815 434.374C73.9157 434.092 74.1572 433.873 74.453 433.768L74.4557 433.767L93.051 427.161C93.3468 427.056 93.6723 427.073 93.956 427.207C94.2397 427.341 94.4582 427.581 94.5638 427.876C94.6693 428.17 94.6532 428.494 94.5189 428.776C94.3846 429.059 94.1431 429.277 93.8475 429.382Z" fill="white"/>
<path d="M92.0976 424.5L73.5022 431.106C73.3558 431.159 73.2005 431.182 73.0451 431.174C72.8897 431.167 72.7373 431.129 72.5966 431.063C72.456 430.996 72.3297 430.903 72.2252 430.789C72.1207 430.674 72.0399 430.54 71.9874 430.394C71.9349 430.248 71.9118 430.094 71.9194 429.939C71.9269 429.785 71.965 429.633 72.0315 429.493C72.0979 429.353 72.1914 429.227 72.3067 429.123C72.4219 429.019 72.5566 428.939 72.7031 428.887L72.7057 428.886L91.301 422.28C91.4475 422.227 91.6028 422.204 91.7582 422.212C91.9136 422.219 92.066 422.257 92.2066 422.324C92.3473 422.39 92.4735 422.483 92.5781 422.597C92.6826 422.712 92.7634 422.846 92.8159 422.992C92.8684 423.138 92.8915 423.292 92.8839 423.447C92.8763 423.602 92.8383 423.753 92.7718 423.893C92.7053 424.033 92.6118 424.159 92.4966 424.263C92.3814 424.367 92.2467 424.447 92.1002 424.5L92.0976 424.5Z" fill="white"/>
<path d="M73.0109 407.66C75.7389 407.66 77.9505 405.459 77.9505 402.744C77.9505 400.029 75.7389 397.828 73.0109 397.828C70.2828 397.828 68.0713 400.029 68.0713 402.744C68.0713 405.459 70.2828 407.66 73.0109 407.66Z" fill="#3F3D56"/>
<path d="M152.564 60.4592C153.323 58.3278 155.439 57.0698 157.595 57.3114C158.493 57.4122 159.39 57.4921 160.292 57.4391C182.795 56.1157 210.667 69.0002 240.337 86.6449C213.176 64.667 188.317 45.2251 159.079 65.2047C156.99 66.6319 154.031 66.1278 152.817 63.9092C152.329 63.0179 152.152 61.9497 152.443 60.8479C152.478 60.7179 152.518 60.5882 152.564 60.4592Z" fill="#E6E6E6"/>
<path d="M302.646 7.7431C304.501 8.92564 305.265 11.1746 304.646 13.1795L304.576 13.4057C303.957 15.4183 302.607 17.1092 300.82 18.2221C275.232 34.1513 304.857 54.5369 257.502 87.4417C280.434 62.9037 299.295 6.07853 302.161 7.47119C302.326 7.5514 302.488 7.64197 302.646 7.7431Z" fill="#E6E6E6"/>
<path d="M341.866 132.306C340.912 134.288 338.77 135.312 336.705 134.936L336.473 134.894C334.401 134.518 332.562 133.378 331.244 131.736C312.39 108.22 295.665 140.055 257.372 96.9407C284.459 116.797 343.121 128.78 342.078 131.791C342.018 131.964 341.948 132.136 341.866 132.306Z" fill="#E6E6E6"/>
<path d="M307.405 130.836C306.423 131.381 304.839 131.305 303.561 130.714L303.417 130.647C302.133 130.054 301.14 129.222 300.578 128.312C292.542 115.293 275.856 123.741 258.692 99.0608C272.763 112.48 308.863 129.771 307.637 130.687C307.566 130.74 307.489 130.789 307.405 130.836Z" fill="#E6E6E6"/>
<path d="M315.149 78.9039C314.906 80.0004 313.799 81.1355 312.509 81.7009L312.364 81.7648C311.069 82.3328 309.788 82.5251 308.734 82.3425C293.659 79.729 288.925 97.8227 259.067 94.3145C278.442 92.6745 315.318 77.106 315.191 78.6314C315.184 78.7193 315.17 78.8102 315.149 78.9039Z" fill="#E6E6E6"/>
<path d="M164.275 146.913C163.192 144.998 163.575 142.654 165.062 141.175L165.23 141.008C166.722 139.522 168.707 138.663 170.808 138.519C200.879 136.471 184.297 104.562 241.557 97.7478C209.789 108.644 166.452 149.957 164.576 147.382C164.468 147.233 164.367 147.077 164.275 146.913Z" fill="#E6E6E6"/>
<path d="M285.206 146.57C284.094 147.312 282.666 147.164 281.716 146.299L281.609 146.202C280.656 145.335 280.061 144.139 279.893 142.844C277.492 124.313 258.902 135.78 252.573 100.604C260.373 119.851 286.956 145.107 285.477 146.366C285.391 146.438 285.301 146.506 285.206 146.57Z" fill="#E6E6E6"/>
<path d="M251.527 177.048C249.824 177.062 248.389 175.917 247.959 174.345L247.911 174.168C247.479 172.59 247.657 170.913 248.362 169.428C258.456 148.172 230.619 147.418 247.876 105.842C243.098 131.596 254.41 176.714 251.958 177.02C251.817 177.037 251.673 177.047 251.527 177.048Z" fill="#57AE09"/>
<path d="M189.856 148C188.759 146.696 188.726 144.861 189.662 143.527L189.768 143.377C190.707 142.038 192.112 141.106 193.705 140.701C216.514 134.914 199.337 112.997 242.363 99.7629C219.482 112.513 191.952 150.006 190.153 148.313C190.049 148.216 189.95 148.111 189.856 148Z" fill="#57AE09"/>
<path d="M203.695 128.971C203.001 128.322 202.982 127.346 203.577 126.597L203.644 126.513C204.241 125.761 205.133 125.207 206.143 124.925C220.606 120.902 209.744 109.94 237.029 101.116C222.513 108.85 205.021 129.953 203.883 129.126C203.817 129.078 203.755 129.026 203.695 128.971Z" fill="#57AE09"/>
<path d="M223.921 142.838C223.043 142.475 222.682 141.568 222.976 140.657L223.009 140.555C223.304 139.641 223.944 138.809 224.791 138.19C236.917 129.341 222.896 122.895 245.339 105.046C234.467 117.388 225.507 143.291 224.151 142.917C224.072 142.895 223.996 142.869 223.921 142.838Z" fill="#E6E6E6"/>
<path d="M164.749 81.3584L166.955 88.1466H174.092L168.318 92.3419L170.524 99.13L164.749 94.9347L158.975 99.13L161.181 92.3419L155.406 88.1466H162.544L164.749 81.3584Z" fill="#57AE09"/>
<path d="M263.108 0L265.314 6.78817H272.451L266.677 10.9835L268.883 17.7716L263.108 13.5763L257.334 17.7716L259.539 10.9835L253.765 6.78817H260.903L263.108 0Z" fill="#E6E6E6"/>
<path d="M315.323 72.8584L317.529 79.6466H324.666L318.892 83.8419L321.097 90.63L315.323 86.4347L309.549 90.63L311.754 83.8419L305.98 79.6466H313.117L315.323 72.8584Z" fill="#57AE09"/>
<path d="M209.679 146.931L211.885 153.719H219.022L213.248 157.914L215.453 164.703L209.679 160.507L203.905 164.703L206.11 157.914L200.336 153.719H207.473L209.679 146.931Z" fill="#57AE09"/>
<path d="M249.751 72.8584L251.956 79.6466H259.094L253.32 83.8419L255.525 90.63L249.751 86.4347L243.976 90.63L246.182 83.8419L240.408 79.6466H247.545L249.751 72.8584Z" fill="#57AE09"/>
<path d="M304.857 0L307.062 6.78817H314.2L308.426 10.9835L310.631 17.7716L304.857 13.5763L299.082 17.7716L301.288 10.9835L295.514 6.78817H302.651L304.857 0Z" fill="#E6E6E6"/>
<path d="M161.009 134.159L163.806 140.726L170.915 140.095L165.534 144.784L168.331 151.351L162.209 147.683L156.828 152.372L158.425 145.415L152.302 141.747L159.412 141.116L161.009 134.159Z" fill="#E6E6E6"/>
<path d="M222.068 8.74484C223.356 8.111 224.802 8.53857 225.622 9.687L225.714 9.81656C226.537 10.9688 226.928 12.4265 226.859 13.9174C225.878 35.2561 247.22 25.7175 247.185 66.5473C242.725 43.4147 219.988 10.0745 221.751 8.92566C221.852 8.85949 221.958 8.79905 222.068 8.74484Z" fill="#57AE09"/>
<path d="M203.455 40.3739C204.026 39.6614 204.962 39.5631 205.727 40.0661L205.813 40.1228C206.581 40.6272 207.182 41.4278 207.529 42.3638C212.492 55.7601 222.203 44.5456 232.752 69.7173C224.219 56.5761 202.612 41.7135 203.321 40.5647C203.362 40.4986 203.406 40.4348 203.455 40.3739Z" fill="#E6E6E6"/>
<path d="M187.026 79.3125C187.105 78.4029 187.828 77.8006 188.744 77.7934L188.847 77.7926C189.766 77.785 190.71 78.1166 191.519 78.7018C203.092 87.0772 204.929 72.3564 227.692 87.4141C213.293 81.2357 187.07 80.8948 187.021 79.5458C187.018 79.4682 187.02 79.3903 187.026 79.3125Z" fill="#E6E6E6"/>
<g clip-path="url(#clip0_608_1158)">
<path d="M32.9469 104.662C31.3773 104.664 29.8723 105.342 28.7624 106.547C27.6525 107.752 27.0281 109.386 27.0264 111.09V325.888C27.0281 327.593 27.6525 329.226 28.7624 330.431C29.8723 331.636 31.3773 332.314 32.9469 332.316H183.778C185.348 332.314 186.852 331.636 187.962 330.431C189.072 329.226 189.697 327.593 189.698 325.888V111.09C189.697 109.386 189.072 107.752 187.962 106.547C186.852 105.342 185.348 104.664 183.778 104.662H32.9469Z" fill="#E6E6E6"/>
<path d="M179.249 191.066H37.4764C35.8054 191.064 34.2034 190.343 33.0219 189.06C31.8403 187.777 31.1757 186.038 31.1738 184.224V140.36C31.1757 138.546 31.8403 136.806 33.0219 135.524C34.2034 134.241 35.8054 133.519 37.4764 133.517H179.249C180.92 133.519 182.522 134.241 183.703 135.524C184.885 136.806 185.55 138.546 185.551 140.36V184.224C185.55 186.038 184.885 187.777 183.703 189.06C182.522 190.343 180.92 191.064 179.249 191.066Z" fill="white"/>
<path d="M179.249 258.035H37.4764C35.8054 258.033 34.2034 257.311 33.0219 256.029C31.8404 254.746 31.1757 253.007 31.1738 251.192V207.328C31.1757 205.514 31.8403 203.775 33.0219 202.492C34.2034 201.209 35.8054 200.488 37.4764 200.486H179.249C180.92 200.488 182.522 201.209 183.703 202.492C184.885 203.775 185.55 205.514 185.551 207.328V251.192C185.55 253.007 184.885 254.746 183.703 256.029C182.522 257.311 180.92 258.033 179.249 258.035Z" fill="white"/>
<path d="M37.4762 267.87C35.9065 267.872 34.4016 268.549 33.2917 269.754C32.1818 270.959 31.5574 272.593 31.5557 274.297V318.161C31.5574 319.865 32.1818 321.499 33.2917 322.704C34.4016 323.909 35.9065 324.587 37.4762 324.589H179.249C180.818 324.587 182.323 323.909 183.433 322.704C184.543 321.499 185.168 319.865 185.169 318.161V274.297C185.168 272.593 184.543 270.959 183.433 269.754C182.323 268.549 180.818 267.872 179.249 267.87H37.4762Z" fill="white"/>
<path d="M181.262 118.036C183.645 118.036 185.576 115.939 185.576 113.353C185.576 110.767 183.645 108.67 181.262 108.67C178.88 108.67 176.949 110.767 176.949 113.353C176.949 115.939 178.88 118.036 181.262 118.036Z" fill="white"/>
<path d="M45.4918 233.944C47.8742 233.944 49.8054 231.847 49.8054 229.26C49.8054 226.674 47.8742 224.577 45.4918 224.577C43.1095 224.577 41.1782 226.674 41.1782 229.26C41.1782 231.847 43.1095 233.944 45.4918 233.944Z" fill="#E6E6E6"/>
<path d="M95.0979 233.214H61.4519C60.486 233.214 59.5597 232.798 58.8767 232.056C58.1937 231.315 57.8101 230.309 57.8101 229.26C57.8101 228.212 58.1937 227.206 58.8767 226.465C59.5597 225.723 60.486 225.307 61.4519 225.307H95.0979C96.0638 225.307 96.9901 225.723 97.6731 226.465C98.3561 227.206 98.7397 228.212 98.7397 229.26C98.7397 230.309 98.3561 231.315 97.6731 232.056C96.9901 232.798 96.0638 233.214 95.0979 233.214Z" fill="#E6E6E6"/>
<path d="M122.166 234.178C124.548 234.178 126.48 232.081 126.48 229.495C126.48 226.908 124.548 224.811 122.166 224.811C119.784 224.811 117.853 226.908 117.853 229.495C117.853 232.081 119.784 234.178 122.166 234.178Z" fill="#E6E6E6"/>
<path d="M171.772 233.448H138.126C137.16 233.448 136.234 233.032 135.551 232.29C134.868 231.549 134.484 230.543 134.484 229.495C134.484 228.446 134.868 227.44 135.551 226.699C136.234 225.957 137.16 225.541 138.126 225.541H171.772C172.738 225.541 173.665 225.957 174.348 226.699C175.031 227.44 175.414 228.446 175.414 229.495C175.414 230.543 175.031 231.549 174.348 232.29C173.665 233.032 172.738 233.448 171.772 233.448Z" fill="#E6E6E6"/>
<path d="M183.508 111.577L182.898 110.914L181.262 112.691L179.626 110.914L179.016 111.577L180.652 113.353L179.016 115.129L179.626 115.792L181.262 114.015L182.898 115.792L183.508 115.129L181.873 113.353L183.508 111.577Z" fill="#E6E6E6"/>
<path d="M45.4918 166.975C47.8742 166.975 49.8054 164.878 49.8054 162.292C49.8054 159.705 47.8742 157.609 45.4918 157.609C43.1095 157.609 41.1782 159.705 41.1782 162.292C41.1782 164.878 43.1095 166.975 45.4918 166.975Z" fill="#E6E6E6"/>
<path d="M172.096 165.777H69.4321C68.4669 165.776 67.5415 165.359 66.8593 164.618C66.1771 163.876 65.7939 162.871 65.7939 161.823C65.7939 160.775 66.1771 159.77 66.8593 159.029C67.5415 158.288 68.4669 157.87 69.4321 157.869H172.096C173.061 157.87 173.986 158.288 174.669 159.029C175.351 159.77 175.734 160.775 175.734 161.823C175.734 162.871 175.351 163.876 174.669 164.618C173.986 165.359 173.061 165.776 172.096 165.777Z" fill="#E6E6E6"/>
<path d="M154.195 165.777H62.7464C61.7805 165.777 60.8542 165.361 60.1712 164.619C59.4882 163.878 59.1045 162.872 59.1045 161.823C59.1045 160.775 59.4882 159.769 60.1712 159.027C60.8542 158.286 61.7805 157.869 62.7464 157.869H154.195C155.16 157.87 156.085 158.288 156.768 159.029C157.45 159.77 157.833 160.775 157.833 161.823C157.833 162.871 157.45 163.876 156.768 164.618C156.085 165.359 155.16 165.776 154.195 165.777Z" fill="#57AE09"/>
<path d="M45.4918 300.912C47.8742 300.912 49.8054 298.816 49.8054 296.229C49.8054 293.643 47.8742 291.546 45.4918 291.546C43.1095 291.546 41.1782 293.643 41.1782 296.229C41.1782 298.816 43.1095 300.912 45.4918 300.912Z" fill="#E6E6E6"/>
<path d="M172.096 299.715H69.4323C68.4665 299.715 67.5401 299.298 66.8572 298.557C66.1742 297.815 65.7905 296.81 65.7905 295.761C65.7905 294.712 66.1742 293.707 66.8572 292.965C67.5401 292.224 68.4665 291.807 69.4323 291.807H172.096C173.062 291.807 173.988 292.224 174.671 292.965C175.354 293.707 175.738 294.712 175.738 295.761C175.738 296.81 175.354 297.815 174.671 298.557C173.988 299.298 173.062 299.715 172.096 299.715Z" fill="#E6E6E6"/>
<path d="M117.421 299.715H62.7463C61.7804 299.715 60.8541 299.298 60.1711 298.557C59.4882 297.815 59.1045 296.81 59.1045 295.761C59.1045 294.712 59.4882 293.707 60.1711 292.965C60.8541 292.224 61.7804 291.807 62.7463 291.807H117.421C118.387 291.807 119.313 292.224 119.996 292.965C120.679 293.707 121.063 294.712 121.063 295.761C121.063 296.81 120.679 297.815 119.996 298.557C119.313 299.298 118.387 299.715 117.421 299.715Z" fill="#57AE09"/>
<path d="M67.3831 233.214H61.4519C60.486 233.214 59.5597 232.798 58.8767 232.056C58.1938 231.315 57.8101 230.309 57.8101 229.26C57.8101 228.212 58.1938 227.206 58.8767 226.465C59.5597 225.723 60.486 225.307 61.4519 225.307H67.3831C68.3489 225.307 69.2752 225.723 69.9582 226.465C70.6412 227.206 71.0249 228.212 71.0249 229.26C71.0249 230.309 70.6412 231.315 69.9582 232.056C69.2752 232.798 68.3489 233.214 67.3831 233.214Z" fill="#57AE09"/>
<path d="M156.675 233.448H138.126C137.16 233.448 136.234 233.032 135.551 232.29C134.868 231.549 134.484 230.543 134.484 229.495C134.484 228.446 134.868 227.44 135.551 226.699C136.234 225.957 137.16 225.541 138.126 225.541H156.675C157.64 225.542 158.565 225.959 159.248 226.7C159.93 227.442 160.313 228.447 160.313 229.495C160.313 230.542 159.93 231.548 159.248 232.289C158.565 233.03 157.64 233.447 156.675 233.448Z" fill="#57AE09"/>
<path d="M314.539 311.977C313.869 311.976 313.207 311.832 312.595 311.556C311.901 311.249 311.29 310.778 310.813 310.183C310.335 309.588 310.005 308.885 309.85 308.134L307.758 298.277C307.579 297.432 307.625 296.554 307.892 295.733C308.159 294.912 308.636 294.178 309.275 293.606L327.757 277.098L309.513 238.321C308.244 235.624 308.026 232.541 308.903 229.689C309.781 226.836 311.688 224.426 314.243 222.939C316.799 221.453 319.813 221.002 322.683 221.675C325.553 222.348 328.066 224.097 329.718 226.57L353.083 261.53C354.819 264.104 356.017 267.012 356.602 270.075C357.187 273.137 357.148 276.288 356.486 279.335C355.753 282.554 354.367 285.584 352.418 288.231C350.468 290.878 347.997 293.085 345.161 294.711L316.937 311.316C316.209 311.748 315.382 311.976 314.539 311.977Z" fill="#CCCCCC"/>
<path d="M210.99 290.902C212.292 291.783 213.768 292.365 215.315 292.605C216.862 292.845 218.442 292.738 219.944 292.292C221.446 291.845 222.833 291.07 224.008 290.021C225.183 288.972 226.117 287.675 226.744 286.22L264.672 289.233L255.11 271.68L220.559 271.51C218.08 270.603 215.359 270.651 212.912 271.643C210.466 272.636 208.463 274.504 207.283 276.894C206.104 279.285 205.83 282.031 206.513 284.613C207.196 287.194 208.789 289.432 210.99 290.902Z" fill="#A0616A"/>
<path d="M301.691 198.992C316.132 198.992 327.839 187.117 327.839 172.467C327.839 157.818 316.132 145.942 301.691 145.942C287.25 145.942 275.543 157.818 275.543 172.467C275.543 187.117 287.25 198.992 301.691 198.992Z" fill="#A0616A"/>
<path d="M224.702 535.335L212.192 531.559L220.595 480.813L239.059 486.387L224.702 535.335Z" fill="#A0616A"/>
<path d="M224.284 548.599L183.947 536.424L184.099 535.907C184.712 533.815 185.725 531.867 187.081 530.172C188.437 528.478 190.108 527.072 192 526.033C193.892 524.994 195.967 524.343 198.106 524.117C200.246 523.892 202.408 524.096 204.47 524.718L204.471 524.719L229.108 532.155L224.284 548.599Z" fill="#2F2E41"/>
<path d="M361.76 534.686L348.707 534.685L342.499 483.615L355.374 483.616L361.76 534.686Z" fill="#A0616A"/>
<path d="M365.087 547.52L323.002 547.518V546.978C323.002 544.796 323.426 542.635 324.249 540.619C325.072 538.603 326.279 536.771 327.8 535.228C329.321 533.685 331.127 532.461 333.115 531.626C335.102 530.791 337.232 530.361 339.383 530.361L365.088 530.362L365.087 547.52Z" fill="#2F2E41"/>
<path d="M229.514 520.321H216.409C215.707 520.321 215.013 520.164 214.377 519.861C213.741 519.559 213.178 519.119 212.728 518.571C212.279 518.023 211.954 517.382 211.775 516.693C211.597 516.004 211.571 515.283 211.697 514.582L230.053 413.209C230.035 339.353 258.68 296.575 258.969 296.151L259.319 295.64L312.855 300.071L366.218 513.414C366.392 514.112 366.412 514.84 366.275 515.547C366.138 516.254 365.848 516.92 365.426 517.499C365.004 518.078 364.46 518.555 363.834 518.894C363.208 519.234 362.515 519.428 361.806 519.463L347.082 520.188C346.086 520.24 345.098 519.974 344.258 519.427C343.418 518.88 342.769 518.08 342.402 517.139L285.988 374.077C285.877 373.764 285.668 373.497 285.395 373.313C285.121 373.13 284.797 373.041 284.469 373.059C284.143 373.062 283.825 373.169 283.561 373.364C283.298 373.559 283.1 373.832 282.997 374.147L234.04 517.057C233.712 518.01 233.101 518.836 232.29 519.421C231.479 520.006 230.509 520.32 229.514 520.321Z" fill="#2F2E41"/>
<path d="M313.976 304.356L313.567 304.325L256.566 299.961L266.565 235.455C267.662 228.254 271.025 221.607 276.152 216.504C281.279 211.402 287.895 208.118 295.013 207.143C295.451 207.081 295.892 207.02 296.336 206.961C301.928 206.214 307.615 206.939 312.851 209.065C318.087 211.19 322.696 214.646 326.237 219.1C329.861 223.579 332.289 228.929 333.287 234.634C334.286 240.34 333.821 246.211 331.937 251.682L313.976 304.356Z" fill="#CCCCCC"/>
<path d="M284.981 287.511C282.668 289.395 280.01 290.798 277.161 291.639C274.312 292.479 271.327 292.741 268.378 292.408L235.389 288.806C234.634 288.724 233.91 288.461 233.276 288.039C232.642 287.618 232.115 287.049 231.739 286.381C231.364 285.712 231.15 284.963 231.115 284.194C231.081 283.426 231.227 282.66 231.541 281.96L235.94 272.163C236.298 271.364 236.863 270.679 237.574 270.18C238.285 269.681 239.117 269.386 239.98 269.328L264.024 267.693L271.918 225.486C272.428 222.777 273.852 220.332 275.946 218.573C278.04 216.814 280.673 215.85 283.392 215.847C285.035 215.84 286.66 216.188 288.16 216.867C289.66 217.547 291 218.543 292.09 219.79C294.157 222.189 295.219 225.313 295.049 228.495L293.52 270.341C293.418 273.505 292.669 276.613 291.319 279.468C289.969 282.322 288.049 284.861 285.68 286.922C285.45 287.123 285.217 287.32 284.981 287.511Z" fill="#CCCCCC"/>
<path d="M281.808 165.843C278.552 167.124 275.121 167.89 271.636 168.113C268.13 168.158 264.404 166.926 262.486 164.217C261.75 163.034 261.274 161.704 261.093 160.317C260.911 158.931 261.027 157.52 261.433 156.183C262.159 153.473 263.466 150.959 265.261 148.82C267.056 146.681 269.294 144.97 271.815 143.81C274.465 142.591 277.326 141.914 280.234 141.819C283.142 141.724 286.04 142.213 288.761 143.257C290.729 137.19 298.139 133.888 304.997 133.701C319.007 133.32 331.534 143.01 337.621 154.663C343.708 166.316 344.598 179.635 344.976 192.567C345.069 195.721 345.107 199.009 343.635 201.856C341.442 206.096 336.458 208.379 331.761 210.19C319.444 214.93 306.737 218.553 293.789 221.017C300.006 216.986 301.978 208.31 298.04 202.313C296.114 199.379 292.95 196.936 292.438 193.538C291.825 189.463 295.252 185.9 296.519 181.956C297.16 179.821 297.189 177.545 296.603 175.394C296.017 173.243 294.84 171.305 293.209 169.806C291.435 168.242 289.312 167.138 287.025 166.588C284.737 166.037 282.353 166.058 280.074 166.647" fill="#2F2E41"/>
<path d="M383.092 549.233H162.716C162.434 549.233 162.163 549.119 161.963 548.917C161.763 548.714 161.651 548.44 161.651 548.153C161.651 547.867 161.763 547.592 161.963 547.389C162.163 547.187 162.434 547.073 162.716 547.073H383.092C383.375 547.073 383.646 547.187 383.845 547.389C384.045 547.592 384.157 547.867 384.157 548.153C384.157 548.44 384.045 548.714 383.845 548.917C383.646 549.119 383.375 549.233 383.092 549.233Z" fill="#CCCCCC"/>
</g>
<path d="M453.999 241.357C462.982 229.923 468.175 217.136 468.345 202.557C468.634 201.772 468.586 200.908 468.211 200.156C467.836 199.405 467.165 198.826 466.345 198.547L435.724 188.179C434.903 187.902 434.001 187.948 433.215 188.307C432.429 188.666 431.825 189.308 431.533 190.093L417.187 228.893C416.898 229.679 416.946 230.542 417.321 231.294C417.696 232.046 418.367 232.625 419.187 232.903L449.808 243.271C450.629 243.548 451.531 243.502 452.317 243.144C453.103 242.785 453.707 242.142 453.999 241.357Z" fill="#57AE09"/>
<path opacity="0.2" d="M447.085 240.666C447.906 240.943 448.809 240.897 449.594 240.538C450.38 240.179 450.985 239.537 451.276 238.752C460.26 227.317 465.452 214.53 465.622 199.952C465.809 199.435 465.851 198.88 465.742 198.343L466.345 198.547C467.165 198.826 467.836 199.405 468.211 200.156C468.586 200.908 468.634 201.771 468.345 202.557C468.175 217.135 462.982 229.922 453.999 241.357C453.707 242.142 453.103 242.785 452.317 243.143C451.531 243.502 450.629 243.548 449.808 243.271L419.187 232.903C418.644 232.717 418.162 232.397 417.79 231.976C417.417 231.554 417.168 231.045 417.067 230.502L447.085 240.666Z" fill="black"/>
<path d="M432.739 211.625L453.239 218.627C453.565 218.738 453.924 218.721 454.237 218.579C454.55 218.437 454.791 218.182 454.908 217.87C455.024 217.558 455.006 217.214 454.858 216.915C454.71 216.615 454.443 216.384 454.117 216.273L433.618 209.271C433.456 209.215 433.285 209.191 433.113 209.199C432.942 209.208 432.774 209.248 432.619 209.318C432.464 209.389 432.325 209.487 432.21 209.609C432.095 209.731 432.006 209.873 431.948 210.028C431.891 210.182 431.866 210.346 431.874 210.51C431.883 210.674 431.925 210.835 431.998 210.983C432.072 211.131 432.175 211.264 432.302 211.374C432.429 211.484 432.578 211.57 432.739 211.625Z" fill="white"/>
<path d="M451.137 210.632L455.647 212.172C455.809 212.227 455.98 212.252 456.151 212.244C456.322 212.236 456.49 212.196 456.645 212.126C456.8 212.055 456.94 211.957 457.055 211.835C457.17 211.714 457.259 211.572 457.317 211.417C457.375 211.263 457.4 211.099 457.392 210.935C457.384 210.771 457.342 210.61 457.268 210.462C457.195 210.313 457.092 210.18 456.965 210.07C456.838 209.96 456.69 209.874 456.528 209.819L456.525 209.818L452.015 208.278C451.689 208.166 451.33 208.184 451.018 208.326C450.705 208.468 450.464 208.723 450.348 209.035C450.231 209.347 450.249 209.69 450.397 209.99C450.545 210.289 450.811 210.52 451.137 210.632Z" fill="white"/>
<path d="M428.879 221.974L449.378 228.976C449.705 229.088 450.064 229.071 450.377 228.929C450.69 228.788 450.932 228.533 451.048 228.221C451.165 227.909 451.148 227.565 451 227.266C450.852 226.966 450.586 226.735 450.26 226.623L450.257 226.622L429.757 219.62C429.431 219.509 429.072 219.526 428.759 219.668C428.447 219.81 428.206 220.065 428.089 220.377C427.973 220.689 427.991 221.032 428.139 221.332C428.287 221.631 428.553 221.862 428.879 221.974Z" fill="white"/>
<path d="M430.809 216.799L451.308 223.802C451.47 223.857 451.641 223.881 451.812 223.873C451.983 223.865 452.151 223.825 452.307 223.755C452.462 223.685 452.601 223.586 452.716 223.465C452.831 223.343 452.92 223.201 452.978 223.047C453.036 222.892 453.061 222.728 453.053 222.564C453.045 222.4 453.003 222.24 452.93 222.091C452.856 221.943 452.753 221.81 452.626 221.699C452.499 221.589 452.351 221.504 452.189 221.449L452.186 221.448L431.687 214.445C431.525 214.39 431.354 214.365 431.183 214.373C431.012 214.381 430.844 214.422 430.688 214.492C430.533 214.562 430.394 214.66 430.279 214.782C430.164 214.904 430.075 215.046 430.017 215.2C429.959 215.355 429.934 215.519 429.942 215.683C429.95 215.846 429.992 216.007 430.065 216.156C430.139 216.304 430.242 216.437 430.369 216.547C430.496 216.658 430.644 216.743 430.806 216.798L430.809 216.799Z" fill="white"/>
<path d="M451.85 198.948C448.842 198.948 446.404 196.615 446.404 193.737C446.404 190.859 448.842 188.526 451.85 188.526C454.857 188.526 457.295 190.859 457.295 193.737C457.295 196.615 454.857 198.948 451.85 198.948Z" fill="#3F3D56"/>
<defs>
<clipPath id="clip0_608_1158">
<rect width="357.748" height="445.946" fill="white" transform="translate(26.7646 104.054)"/>
</clipPath>
</defs>
</svg>
