<svg width="100" height="155" viewBox="0 0 100 155" fill="none" xmlns="http://www.w3.org/2000/svg">
<ellipse cx="52" cy="114.7" rx="40" ry="40.3" fill="#FFEDA9"/>
<path d="M50 155C77.6167 155 100 138.75 100 110.312C100 98.125 95.8333 77.8125 79.1667 61.5625C81.25 73.75 68.75 77.8125 68.75 77.8125C75 57.5 58.3333 29.0625 33.3333 25C36.3083 41.25 37.5 57.5 16.6667 73.75C6.25 81.875 0 95.9231 0 110.312C0 138.75 22.3833 155 50 155ZM50 146.875C36.1917 146.875 25 138.75 25 124.531C25 118.438 27.0833 108.281 35.4167 100.156C34.375 106.25 41.6667 110.312 41.6667 110.312C38.5417 100.156 45.8333 83.9062 58.3333 81.875C56.8417 90 56.25 98.125 66.6667 106.25C71.875 110.312 75 117.332 75 124.531C75 138.75 63.8083 146.875 50 146.875Z" fill="#FF7A00"/>
<circle cx="9.5" cy="40.5" r="2.5" fill="#FF8A1D"/>
<path d="M92.5 36C92.5 37.933 90.433 43 88.5 43C81.5 43 81.5 37.933 81.5 36C81.5 34.067 85.067 38.5 87 38.5C88.933 38.5 92.5 34.067 92.5 36Z" fill="#FFEDA9"/>
<path d="M23.5452 20.0411C23.4461 17.8297 25.2245 15.9537 23.3657 16.037C21.5069 16.1204 20.2599 21.9847 20.3591 24.1961C20.4582 26.4075 21.8659 24.1285 23.7247 24.0452C25.5835 23.9618 23.6444 22.2525 23.5452 20.0411Z" fill="#FFEDA9"/>
<path d="M37 3.375L39.1212 0L40.1818 0.28125L41.2424 2.53125L45.1818 5.90625L47 9H43.0606L40.9394 5.90625L37 3.375Z" fill="#FF6B00"/>
</svg>
