<svg width="44" height="44" viewBox="0 0 44 44" fill="none" xmlns="http://www.w3.org/2000/svg">
<path d="M39.9768 18.4093H38.5001V18.3332H22.0001V25.6665H32.3612C30.8496 29.9354 26.7878 32.9998 22.0001 32.9998C15.9253 32.9998 11.0001 28.0746 11.0001 21.9998C11.0001 15.9251 15.9253 10.9998 22.0001 10.9998C24.8042 10.9998 27.3552 12.0577 29.2977 13.7856L34.4832 8.6C31.2089 5.54842 26.8291 3.6665 22.0001 3.6665C11.8755 3.6665 3.66675 11.8753 3.66675 21.9998C3.66675 32.1244 11.8755 40.3332 22.0001 40.3332C32.1247 40.3332 40.3334 32.1244 40.3334 21.9998C40.3334 20.7706 40.2069 19.5707 39.9768 18.4093Z" fill="#FFC107"/>
<path d="M5.78052 13.4666L11.8039 17.884C13.4338 13.8488 17.3809 10.9998 22 10.9998C24.8041 10.9998 27.3552 12.0577 29.2976 13.7856L34.4832 8.6C31.2089 5.54842 26.829 3.6665 22 3.6665C14.9582 3.6665 8.85135 7.64209 5.78052 13.4666Z" fill="#FF3D00"/>
<path d="M22 40.3335C26.7355 40.3335 31.0383 38.5212 34.2915 35.5741L28.6174 30.7726C26.7149 32.2195 24.3901 33.002 22 33.0001C17.2315 33.0001 13.1825 29.9596 11.6572 25.7163L5.67871 30.3226C8.71288 36.2598 14.8747 40.3335 22 40.3335Z" fill="#4CAF50"/>
<path d="M39.9767 18.4096H38.5V18.3335H22V25.6668H32.3611C31.638 27.6985 30.3356 29.4739 28.6147 30.7736L28.6174 30.7717L34.2916 35.5732C33.8901 35.9381 40.3333 31.1668 40.3333 22.0002C40.3333 20.7709 40.2068 19.571 39.9767 18.4096Z" fill="#1976D2"/>
</svg>
